SplineFontDB: 3.0
FontName: Oxygen-Bold
FullName: Oxygen Bold
FamilyName: Oxygen
Weight: Bold
Copyright: Font data copyright Vernon Adams 2013
Version: 0.45; ttfautohint (v0.95.60-82d63) -l 8 -r 50 -G 200 -x 0 -f dflt -w G -W
ItalicAngle: 0
UnderlinePosition: 0
UnderlineWidth: 0
Ascent: 1638
Descent: 410
sfntRevision: 0x00007333
LayerCount: 2
Layer: 0 1 "Back"  1
Layer: 1 1 "Fore"  0
XUID: [1021 913 -2060267417 1263225]
FSType: 0
OS2Version: 0
OS2_WeightWidthSlopeOnly: 0
OS2_UseTypoMetrics: 1
CreationTime: 1383351792
ModificationTime: 1383411876
PfmFamily: 33
TTFWeight: 700
TTFWidth: 5
LineGap: 0
VLineGap: 0
OS2TypoAscent: 2177
OS2TypoAOffset: 0
OS2TypoDescent: -508
OS2TypoDOffset: 0
OS2TypoLinegap: 0
OS2WinAscent: 2177
OS2WinAOffset: 0
OS2WinDescent: 508
OS2WinDOffset: 0
HheadAscent: 2177
HheadAOffset: 0
HheadDescent: -508
HheadDOffset: 0
OS2Vendor: 'newt'
Lookup: 258 0 0 "'kern' Horizontal Kerning in Latin lookup 0"  {"'kern' Horizontal Kerning in Latin lookup 0 subtable"  } ['kern' ('latn' <'dflt' > ) ]
Lookup: 258 0 0 "'kern' Horizontal Kerning in Latin lookup 1"  {"'kern' Horizontal Kerning in Latin lookup 1 subtable"  } ['kern' ('latn' <'dflt' > ) ]
MarkAttachClasses: 1
DEI: 91125
KernClass2: 24 29 "'kern' Horizontal Kerning in Latin lookup 1 subtable" 
 50 A Agrave Aacute Acircumflex Atilde Adieresis Aring
 1 B
 10 C Ccedilla
 1 D
 1 F
 1 K
 1 L
 44 O Ograve Oacute Ocircumflex Otilde Odieresis
 1 P
 1 R
 1 T
 37 U Ugrave Uacute Ucircumflex Udieresis
 1 V
 1 W
 18 Y Yacute Ydieresis
 50 a agrave aacute acircumflex atilde adieresis aring
 37 e egrave eacute ecircumflex edieresis
 1 f
 1 k
 1 r
 1 v
 1 w
 1 x
 50 A Agrave Aacute Acircumflex Atilde Adieresis Aring
 10 C Ccedilla
 1 G
 1 J
 44 O Ograve Oacute Ocircumflex Otilde Odieresis
 1 Q
 1 T
 37 U Ugrave Uacute Ucircumflex Udieresis
 1 V
 1 W
 18 Y Yacute Ydieresis
 50 a agrave aacute acircumflex atilde adieresis aring
 10 c ccedilla
 5 comma
 1 d
 37 e egrave eacute ecircumflex edieresis
 1 g
 6 hyphen

StartChar: .notdef
Encoding: 65536 -1 0
Width: 748
Flags: W
LayerCount: 2
Fore
SplineSet
68 0 m 1,0,-1
 68 1365 l 1,1,-1
 612 1365 l 1,2,-1
 612 0 l 1,3,-1
 68 0 l 1,0,-1
136 68 m 1,4,-1
 544 68 l 1,5,-1
 544 1297 l 1,6,-1
 136 1297 l 1,7,-1
 136 68 l 1,4,-1
EndSplineSet
EndChar

StartChar: exclam
Encoding: 33 33 4
Width: 738
GlyphClass: 2
Flags: W
LayerCount: 2
Fore
SplineSet
317 449 m 1,0,-1
 252 1327 l 1,1,-1
 252 1513 l 1,2,-1
 473 1513 l 1,3,-1
 473 1327 l 1,4,-1
 415 449 l 1,5,-1
 317 449 l 1,0,-1
362 -10 m 128,-1,7
 300 -10 300 -10 261 32.5 c 128,-1,8
 222 75 222 75 222 133 c 128,-1,9
 222 191 222 191 261 233 c 128,-1,10
 300 275 300 275 362 275 c 128,-1,11
 424 275 424 275 462.5 233.5 c 128,-1,12
 501 192 501 192 501 133 c 128,-1,13
 501 74 501 74 462.5 32 c 128,-1,6
 424 -10 424 -10 362 -10 c 128,-1,7
EndSplineSet
EndChar

StartChar: quotedbl
Encoding: 34 34 5
Width: 852
GlyphClass: 2
Flags: W
LayerCount: 2
Fore
SplineSet
520 903 m 1,0,-1
 475 1472 l 1,1,-1
 703 1472 l 1,2,-1
 653 903 l 1,3,-1
 520 903 l 1,0,-1
188 903 m 1,4,-1
 144 1472 l 1,5,-1
 371 1472 l 1,6,-1
 322 903 l 1,7,-1
 188 903 l 1,4,-1
EndSplineSet
EndChar

StartChar: numbersign
Encoding: 35 35 6
Width: 1136
GlyphClass: 2
Flags: W
LayerCount: 2
Fore
SplineSet
545 -9 m 1,0,-1
 631 452 l 1,1,-1
 391 452 l 1,2,-1
 305 -9 l 1,3,-1
 165 -9 l 1,4,-1
 251 452 l 1,5,-1
 69 452 l 1,6,-1
 85 566 l 1,7,-1
 272 566 l 1,8,-1
 350 979 l 1,9,-1
 156 979 l 1,10,-1
 172 1094 l 1,11,-1
 371 1094 l 1,12,-1
 443 1480 l 1,13,-1
 585 1480 l 1,14,-1
 512 1094 l 1,15,-1
 752 1094 l 1,16,-1
 824 1480 l 1,17,-1
 965 1480 l 1,18,-1
 892 1094 l 1,19,-1
 1071 1094 l 1,20,-1
 1054 979 l 1,21,-1
 871 979 l 1,22,-1
 794 566 l 1,23,-1
 983 566 l 1,24,-1
 967 452 l 1,25,-1
 772 452 l 1,26,-1
 685 -9 l 1,27,-1
 545 -9 l 1,0,-1
652 566 m 1,28,-1
 730 979 l 1,29,-1
 491 979 l 1,30,-1
 413 566 l 1,31,-1
 652 566 l 1,28,-1
EndSplineSet
EndChar

StartChar: dollar
Encoding: 36 36 7
Width: 1221
GlyphClass: 2
Flags: W
LayerCount: 2
Fore
SplineSet
714 1474 m 1,0,1
 799 1462 799 1462 872.5 1429.5 c 128,-1,2
 946 1397 946 1397 997 1352.5 c 128,-1,3
 1048 1308 1048 1308 1081 1254 c 1,4,-1
 911 1140 l 1,5,6
 871 1206 871 1206 796 1244 c 128,-1,7
 721 1282 721 1282 634 1282 c 0,8,9
 517 1282 517 1282 443 1236.5 c 128,-1,10
 369 1191 369 1191 369 1097 c 0,11,12
 369 1028 369 1028 397 991.5 c 128,-1,13
 425 955 425 955 499 922 c 0,14,15
 556 897 556 897 629 868.5 c 128,-1,16
 702 840 702 840 749 822 c 128,-1,17
 796 804 796 804 851.5 779.5 c 128,-1,18
 907 755 907 755 941.5 733 c 128,-1,19
 976 711 976 711 1011 678 c 128,-1,20
 1046 645 1046 645 1065.5 607 c 128,-1,21
 1085 569 1085 569 1097 516.5 c 128,-1,22
 1109 464 1109 464 1109 399 c 0,23,24
 1109 332 1109 332 1092.5 274.5 c 128,-1,25
 1076 217 1076 217 1046 173.5 c 128,-1,26
 1016 130 1016 130 975.5 95.5 c 128,-1,27
 935 61 935 61 884.5 38.5 c 128,-1,28
 834 16 834 16 779 2.5 c 128,-1,29
 724 -11 724 -11 663 -15 c 1,30,-1
 653 -278 l 1,31,-1
 487 -278 l 1,32,-1
 536 -13 l 1,33,34
 408 1 408 1 296 62.5 c 128,-1,35
 184 124 184 124 119 202 c 1,36,-1
 282 334 l 1,37,38
 342 269 342 269 426.5 227 c 128,-1,39
 511 185 511 185 602 185 c 0,40,41
 722 185 722 185 795 234.5 c 128,-1,42
 868 284 868 284 868 387 c 0,43,44
 868 467 868 467 829 508.5 c 128,-1,45
 790 550 790 550 673 600 c 0,46,47
 625 620 625 620 560 645.5 c 128,-1,48
 495 671 495 671 455 686.5 c 128,-1,49
 415 702 415 702 365 725 c 128,-1,50
 315 748 315 748 284.5 769 c 128,-1,51
 254 790 254 790 222 821 c 128,-1,52
 190 852 190 852 172.5 888 c 128,-1,53
 155 924 155 924 144 973 c 128,-1,54
 133 1022 133 1022 133 1083 c 0,55,56
 133 1141 133 1141 146 1191.5 c 128,-1,57
 159 1242 159 1242 182 1281.5 c 128,-1,58
 205 1321 205 1321 238 1352.5 c 128,-1,59
 271 1384 271 1384 310 1406.5 c 128,-1,60
 349 1429 349 1429 394.5 1445 c 128,-1,61
 440 1461 440 1461 488 1469 c 128,-1,62
 536 1477 536 1477 587 1479 c 1,63,-1
 603 1779 l 1,64,-1
 765 1779 l 1,65,-1
 714 1474 l 1,0,1
EndSplineSet
EndChar

StartChar: percent
Encoding: 37 37 8
Width: 1789
GlyphClass: 2
Flags: W
LayerCount: 2
Fore
SplineSet
1368 -20 m 0,0,1
 1195 -20 1195 -20 1100.5 92 c 128,-1,2
 1006 204 1006 204 1006 380 c 0,3,4
 1006 554 1006 554 1101.5 665 c 128,-1,5
 1197 776 1197 776 1368 776 c 0,6,7
 1543 776 1543 776 1637.5 666.5 c 128,-1,8
 1732 557 1732 557 1732 380 c 0,9,10
 1732 205 1732 205 1636 92.5 c 128,-1,11
 1540 -20 1540 -20 1368 -20 c 0,0,1
1371 127 m 0,12,13
 1466 127 1466 127 1512.5 197.5 c 128,-1,14
 1559 268 1559 268 1559 382 c 0,15,16
 1559 498 1559 498 1513 565.5 c 128,-1,17
 1467 633 1467 633 1371 633 c 0,18,19
 1274 633 1274 633 1227 564 c 128,-1,20
 1180 495 1180 495 1180 382 c 0,21,22
 1180 266 1180 266 1227 196.5 c 128,-1,23
 1274 127 1274 127 1371 127 c 0,12,13
386 864 m 0,24,25
 482 864 482 864 528 934 c 128,-1,26
 574 1004 574 1004 574 1119 c 0,27,28
 574 1235 574 1235 528 1302.5 c 128,-1,29
 482 1370 482 1370 386 1370 c 0,30,31
 289 1370 289 1370 242 1301 c 128,-1,32
 195 1232 195 1232 195 1119 c 0,33,34
 195 1003 195 1003 242 933.5 c 128,-1,35
 289 864 289 864 386 864 c 0,24,25
383 717 m 128,-1,37
 211 717 211 717 120.5 828 c 128,-1,38
 30 939 30 939 30 1116 c 0,39,40
 30 1292 30 1292 121.5 1402.5 c 128,-1,41
 213 1513 213 1513 383 1513 c 0,42,43
 558 1513 558 1513 652.5 1403 c 128,-1,44
 747 1293 747 1293 747 1116 c 0,45,46
 747 941 747 941 651 829 c 128,-1,36
 555 717 555 717 383 717 c 128,-1,37
361 0 m 1,47,-1
 1204 1493 l 1,48,-1
 1387 1493 l 1,49,-1
 553 0 l 1,50,-1
 361 0 l 1,47,-1
EndSplineSet
EndChar

StartChar: ampersand
Encoding: 38 38 9
Width: 1420
GlyphClass: 2
Flags: W
LayerCount: 2
Fore
SplineSet
565 915 m 1,0,1
 663 966 663 966 728 1037.5 c 128,-1,2
 793 1109 793 1109 793 1192 c 0,3,4
 793 1269 793 1269 749 1308.5 c 128,-1,5
 705 1348 705 1348 626 1348 c 0,6,7
 544 1348 544 1348 491.5 1306.5 c 128,-1,8
 439 1265 439 1265 439 1188 c 0,9,10
 439 1044 439 1044 565 915 c 1,0,1
610 160 m 0,11,12
 767 160 767 160 877 250 c 1,13,-1
 489 689 l 1,14,15
 313 585 313 585 313 410 c 0,16,17
 313 287 313 287 395 223.5 c 128,-1,18
 477 160 477 160 610 160 c 0,11,12
601 -18 m 0,19,20
 375 -18 375 -18 235 89.5 c 128,-1,21
 95 197 95 197 95 401 c 0,22,23
 95 480 95 480 116 544.5 c 128,-1,24
 137 609 137 609 178.5 659 c 128,-1,25
 220 709 220 709 267 746.5 c 128,-1,26
 314 784 314 784 381 822 c 1,27,28
 231 992 231 992 231 1171 c 0,29,30
 231 1275 231 1275 285.5 1353.5 c 128,-1,31
 340 1432 340 1432 427.5 1470.5 c 128,-1,32
 515 1509 515 1509 621 1509 c 0,33,34
 695 1509 695 1509 761 1490.5 c 128,-1,35
 827 1472 827 1472 880.5 1435 c 128,-1,36
 934 1398 934 1398 965.5 1336.5 c 128,-1,37
 997 1275 997 1275 997 1197 c 0,38,39
 997 1132 997 1132 970 1070.5 c 128,-1,40
 943 1009 943 1009 895.5 958 c 128,-1,41
 848 907 848 907 792.5 865.5 c 128,-1,42
 737 824 737 824 670 788 c 1,43,-1
 1023 390 l 1,44,45
 1103 481 1103 481 1172 627 c 1,46,-1
 1325 525 l 1,47,48
 1251 367 1251 367 1148 254 c 1,49,-1
 1331 63 l 1,50,-1
 1132 -16 l 1,51,-1
 998 114 l 1,52,53
 900 40 900 40 815.5 11 c 128,-1,54
 731 -18 731 -18 601 -18 c 0,19,20
EndSplineSet
EndChar

StartChar: quotesingle
Encoding: 39 39 10
Width: 624
GlyphClass: 2
Flags: W
LayerCount: 2
Fore
SplineSet
235 855 m 1,0,-1
 188 1473 l 1,1,-1
 423 1473 l 1,2,-1
 361 855 l 1,3,-1
 235 855 l 1,0,-1
EndSplineSet
EndChar

StartChar: parenleft
Encoding: 40 40 11
Width: 823
GlyphClass: 2
Flags: W
LayerCount: 2
Fore
SplineSet
407 664 m 0,0,1
 407 135 407 135 668 -233 c 1,2,-1
 668 -265 l 1,3,-1
 473 -265 l 1,4,5
 352 -93 352 -93 277.5 158.5 c 128,-1,6
 203 410 203 410 203 664 c 128,-1,7
 203 918 203 918 277.5 1169.5 c 128,-1,8
 352 1421 352 1421 473 1593 c 1,9,-1
 668 1593 l 1,10,-1
 668 1556 l 1,11,12
 407 1188 407 1188 407 664 c 0,0,1
EndSplineSet
EndChar

StartChar: parenright
Encoding: 41 41 12
Width: 823
GlyphClass: 2
Flags: W
LayerCount: 2
Fore
SplineSet
617 664 m 128,-1,1
 617 410 617 410 542.5 158.5 c 128,-1,2
 468 -93 468 -93 347 -265 c 1,3,-1
 152 -265 l 1,4,-1
 152 -233 l 1,5,6
 413 135 413 135 413 664 c 0,7,8
 413 1188 413 1188 152 1556 c 1,9,-1
 152 1593 l 1,10,-1
 347 1593 l 1,11,12
 468 1421 468 1421 542.5 1169.5 c 128,-1,0
 617 918 617 918 617 664 c 128,-1,1
EndSplineSet
EndChar

StartChar: asterisk
Encoding: 42 42 13
Width: 994
GlyphClass: 2
Flags: W
LayerCount: 2
Fore
SplineSet
324 535 m 1,0,-1
 142 642 l 1,1,-1
 378 957 l 1,2,-1
 35 1036 l 1,3,-1
 93 1238 l 1,4,-1
 430 1094 l 1,5,-1
 396 1490 l 1,6,-1
 604 1490 l 1,7,-1
 570 1094 l 1,8,-1
 909 1238 l 1,9,-1
 967 1036 l 1,10,-1
 620 957 l 1,11,12
 833 676 833 676 859 642 c 1,13,14
 846 634 846 634 769.5 588.5 c 128,-1,15
 693 543 693 543 680 534 c 1,16,-1
 497 871 l 1,17,-1
 324 535 l 1,0,-1
EndSplineSet
EndChar

StartChar: plus
Encoding: 43 43 14
Width: 1164
GlyphClass: 2
Flags: W
LayerCount: 2
Fore
SplineSet
492 154 m 1,0,-1
 492 566 l 1,1,-1
 105 566 l 1,2,-1
 105 736 l 1,3,-1
 493 736 l 1,4,-1
 493 1144 l 1,5,-1
 666 1144 l 1,6,-1
 666 736 l 1,7,-1
 1049 736 l 1,8,-1
 1049 566 l 1,9,-1
 665 566 l 1,10,-1
 665 154 l 1,11,-1
 492 154 l 1,0,-1
EndSplineSet
EndChar

StartChar: comma
Encoding: 44 44 15
Width: 653
GlyphClass: 2
Flags: W
LayerCount: 2
Fore
SplineSet
175 -352 m 1,0,1
 247 226 247 226 247 259 c 1,2,-1
 465 259 l 1,3,-1
 460 208 l 1,4,5
 460 208 460 208 326 -352 c 1,6,-1
 175 -352 l 1,0,1
EndSplineSet
EndChar

StartChar: hyphen
Encoding: 45 45 16
Width: 908
GlyphClass: 2
Flags: W
LayerCount: 2
Fore
SplineSet
163 467 m 1,0,-1
 163 652 l 1,1,-1
 744 652 l 1,2,-1
 744 467 l 1,3,-1
 163 467 l 1,0,-1
EndSplineSet
EndChar

StartChar: period
Encoding: 46 46 17
Width: 681
GlyphClass: 2
Flags: W
LayerCount: 2
Fore
SplineSet
334 -6 m 128,-1,1
 272 -6 272 -6 236.5 34 c 128,-1,2
 201 74 201 74 201 144 c 0,3,4
 201 215 201 215 236 255.5 c 128,-1,5
 271 296 271 296 334 296 c 0,6,7
 396 296 396 296 431 255.5 c 128,-1,8
 466 215 466 215 466 144 c 0,9,10
 466 74 466 74 431 34 c 128,-1,0
 396 -6 396 -6 334 -6 c 128,-1,1
EndSplineSet
EndChar

StartChar: slash
Encoding: 47 47 18
Width: 994
GlyphClass: 2
Flags: W
LayerCount: 2
Fore
SplineSet
95 -163 m 1,0,-1
 725 1479 l 1,1,-1
 910 1479 l 1,2,-1
 276 -163 l 1,3,-1
 95 -163 l 1,0,-1
EndSplineSet
EndChar

StartChar: zero
Encoding: 48 48 19
Width: 1193
GlyphClass: 2
Flags: W
LayerCount: 2
Fore
SplineSet
599 184 m 0,0,1
 744 184 744 184 813 334 c 128,-1,2
 882 484 882 484 882 753 c 0,3,4
 882 1309 882 1309 599 1309 c 0,5,6
 454 1309 454 1309 383 1161 c 128,-1,7
 312 1013 312 1013 311 755 c 0,8,9
 311 579 311 579 340.5 454 c 128,-1,10
 370 329 370 329 435.5 256.5 c 128,-1,11
 501 184 501 184 599 184 c 0,0,1
599 -20 m 128,-1,13
 463 -20 463 -20 358.5 41 c 128,-1,14
 254 102 254 102 191.5 209 c 128,-1,15
 129 316 129 316 98 451.5 c 128,-1,16
 67 587 67 587 67 746 c 0,17,18
 67 910 67 910 99.5 1047.5 c 128,-1,19
 132 1185 132 1185 195.5 1290 c 128,-1,20
 259 1395 259 1395 362.5 1454 c 128,-1,21
 466 1513 466 1513 599 1513 c 0,22,23
 733 1513 733 1513 835.5 1454 c 128,-1,24
 938 1395 938 1395 1000.5 1289.5 c 128,-1,25
 1063 1184 1063 1184 1094.5 1047 c 128,-1,26
 1126 910 1126 910 1126 746 c 0,27,28
 1126 586 1126 586 1095.5 451 c 128,-1,29
 1065 316 1065 316 1003.5 209 c 128,-1,30
 942 102 942 102 838.5 41 c 128,-1,12
 735 -20 735 -20 599 -20 c 128,-1,13
EndSplineSet
EndChar

StartChar: one
Encoding: 49 49 20
Width: 1192
GlyphClass: 2
Flags: W
LayerCount: 2
Fore
SplineSet
121 0 m 1,0,-1
 121 184 l 1,1,-1
 519 184 l 1,2,-1
 519 1240 l 1,3,4
 452 1203 452 1203 341 1168 c 128,-1,5
 230 1133 230 1133 146 1121 c 1,6,-1
 146 1306 l 1,7,8
 252 1332 252 1332 372 1374.5 c 128,-1,9
 492 1417 492 1417 546 1456 c 1,10,-1
 759 1456 l 1,11,-1
 759 184 l 1,12,-1
 1096 184 l 1,13,-1
 1096 0 l 1,14,-1
 121 0 l 1,0,-1
EndSplineSet
EndChar

StartChar: two
Encoding: 50 50 21
Width: 1192
GlyphClass: 2
Flags: W
LayerCount: 2
Fore
SplineSet
565 1480 m 0,0,1
 639 1480 639 1480 706.5 1463.5 c 128,-1,2
 774 1447 774 1447 835 1410.5 c 128,-1,3
 896 1374 896 1374 940.5 1321 c 128,-1,4
 985 1268 985 1268 1011 1189.5 c 128,-1,5
 1037 1111 1037 1111 1037 1016 c 0,6,7
 1037 893 1037 893 971 779.5 c 128,-1,8
 905 666 905 666 755 526 c 2,9,-1
 399 192 l 1,10,-1
 1034 192 l 1,11,-1
 1014 0 l 1,12,-1
 156 0 l 1,13,-1
 119 198 l 1,14,-1
 611 692 l 2,15,16
 704 786 704 786 751 866.5 c 128,-1,17
 798 947 798 947 798 1030 c 0,18,19
 798 1153 798 1153 726.5 1217.5 c 128,-1,20
 655 1282 655 1282 547 1282 c 0,21,22
 460 1282 460 1282 379 1239.5 c 128,-1,23
 298 1197 298 1197 242 1124 c 1,24,-1
 221 1124 l 1,25,-1
 94 1258 l 1,26,27
 165 1351 165 1351 282.5 1415.5 c 128,-1,28
 400 1480 400 1480 565 1480 c 0,0,1
EndSplineSet
EndChar

StartChar: three
Encoding: 51 51 22
Width: 1192
GlyphClass: 2
Flags: W
LayerCount: 2
Fore
SplineSet
571 -18 m 0,0,1
 402 -18 402 -18 283 43.5 c 128,-1,2
 164 105 164 105 108 204 c 1,3,-1
 240 343 l 1,4,-1
 256 343 l 1,5,6
 371 184 371 184 559 184 c 0,7,8
 685 184 685 184 756.5 245.5 c 128,-1,9
 828 307 828 307 828 418 c 0,10,11
 828 494 828 494 799 546 c 128,-1,12
 770 598 770 598 713.5 626.5 c 128,-1,13
 657 655 657 655 587 666.5 c 128,-1,14
 517 678 517 678 421 678 c 2,15,-1
 379 678 l 1,16,-1
 356 853 l 1,17,-1
 422 857 l 2,18,19
 507 863 507 863 568.5 876 c 128,-1,20
 630 889 630 889 685.5 915.5 c 128,-1,21
 741 942 741 942 770 990 c 128,-1,22
 799 1038 799 1038 799 1107 c 0,23,24
 799 1203 799 1203 736.5 1256 c 128,-1,25
 674 1309 674 1309 556 1309 c 0,26,27
 375 1309 375 1309 287 1144 c 1,28,-1
 270 1144 l 1,29,-1
 115 1239 l 1,30,31
 160 1362 160 1362 280 1437.5 c 128,-1,32
 400 1513 400 1513 565 1513 c 0,33,34
 767 1513 767 1513 897 1409.5 c 128,-1,35
 1027 1306 1027 1306 1027 1124 c 0,36,37
 1027 999 1027 999 960 909 c 128,-1,38
 893 819 893 819 749 781 c 1,39,40
 1070 708 1070 708 1070 408 c 0,41,42
 1070 273 1070 273 1003 175 c 128,-1,43
 936 77 936 77 824.5 29.5 c 128,-1,44
 713 -18 713 -18 571 -18 c 0,0,1
EndSplineSet
EndChar

StartChar: four
Encoding: 52 52 23
Width: 1192
GlyphClass: 2
Flags: W
LayerCount: 2
Fore
SplineSet
702 0 m 1,0,-1
 702 350 l 1,1,-1
 67 350 l 1,2,-1
 67 531 l 1,3,-1
 660 1456 l 1,4,-1
 926 1456 l 1,5,-1
 926 533 l 1,6,-1
 1149 533 l 1,7,-1
 1118 350 l 1,8,-1
 926 350 l 1,9,-1
 926 0 l 1,10,-1
 702 0 l 1,0,-1
297 530 m 1,11,-1
 702 530 l 1,12,-1
 702 1188 l 1,13,-1
 297 530 l 1,11,-1
EndSplineSet
EndChar

StartChar: five
Encoding: 53 53 24
Width: 1192
GlyphClass: 2
Flags: W
LayerCount: 2
Fore
SplineSet
844 474 m 0,0,1
 844 608 844 608 775.5 686 c 128,-1,2
 707 764 707 764 575 764 c 0,3,4
 429 764 429 764 348 646 c 1,5,-1
 177 672 l 1,6,-1
 241 1456 l 1,7,-1
 1015 1456 l 1,8,-1
 989 1272 l 1,9,-1
 427 1272 l 1,10,-1
 376 827 l 1,11,12
 463 944 463 944 653 944 c 0,13,14
 835 944 835 944 953.5 810.5 c 128,-1,15
 1072 677 1072 677 1072 473 c 0,16,17
 1072 243 1072 243 945 112.5 c 128,-1,18
 818 -18 818 -18 583 -18 c 0,19,20
 414 -18 414 -18 295 43.5 c 128,-1,21
 176 105 176 105 120 204 c 1,22,-1
 252 343 l 1,23,-1
 268 343 l 1,24,25
 381 186 381 186 571 186 c 0,26,27
 707 186 707 186 775.5 260 c 128,-1,28
 844 334 844 334 844 474 c 0,0,1
EndSplineSet
EndChar

StartChar: six
Encoding: 54 54 25
Width: 1192
GlyphClass: 2
Flags: W
LayerCount: 2
Fore
SplineSet
708 927 m 0,0,1
 788 927 788 927 859.5 894 c 128,-1,2
 931 861 931 861 985.5 801.5 c 128,-1,3
 1040 742 1040 742 1072.5 650 c 128,-1,4
 1105 558 1105 558 1105 447 c 0,5,6
 1105 242 1105 242 963 111.5 c 128,-1,7
 821 -19 821 -19 600 -19 c 0,8,9
 371 -19 371 -19 231.5 115 c 128,-1,10
 92 249 92 249 92 457 c 0,11,12
 92 531 92 531 106.5 596.5 c 128,-1,13
 121 662 121 662 154.5 729.5 c 128,-1,14
 188 797 188 797 216.5 842 c 128,-1,15
 245 887 245 887 300 966 c 2,16,-1
 639 1456 l 1,17,-1
 897 1456 l 1,18,-1
 897 1432 l 1,19,-1
 610 1020 l 1,20,-1
 481 853 l 1,21,22
 583 927 583 927 708 927 c 0,0,1
611 760 m 0,23,24
 536 760 536 760 472.5 726.5 c 128,-1,25
 409 693 409 693 367 620 c 128,-1,26
 325 547 325 547 325 446 c 0,27,28
 325 320 325 320 395 241.5 c 128,-1,29
 465 163 465 163 595 163 c 0,30,31
 728 163 728 163 802.5 243.5 c 128,-1,32
 877 324 877 324 877 450 c 0,33,34
 877 599 877 599 799 679.5 c 128,-1,35
 721 760 721 760 611 760 c 0,23,24
EndSplineSet
EndChar

StartChar: seven
Encoding: 55 55 26
Width: 1192
GlyphClass: 2
Flags: W
LayerCount: 2
Fore
SplineSet
273 0 m 1,0,-1
 832 1261 l 1,1,-1
 164 1261 l 1,2,-1
 150 1456 l 1,3,-1
 1076 1456 l 1,4,-1
 1089 1294 l 1,5,-1
 518 0 l 1,6,-1
 273 0 l 1,0,-1
EndSplineSet
EndChar

StartChar: eight
Encoding: 56 56 27
Width: 1193
GlyphClass: 2
Flags: W
LayerCount: 2
Fore
SplineSet
599 828 m 1,0,1
 719 855 719 855 780 928 c 128,-1,2
 841 1001 841 1001 841 1111 c 0,3,4
 841 1204 841 1204 776 1257 c 128,-1,5
 711 1310 711 1310 599 1310 c 128,-1,6
 487 1310 487 1310 420 1256.5 c 128,-1,7
 353 1203 353 1203 353 1111 c 0,8,9
 353 1002 353 1002 416 928.5 c 128,-1,10
 479 855 479 855 599 828 c 1,0,1
599 146 m 0,11,12
 733 146 733 146 795.5 205 c 128,-1,13
 858 264 858 264 858 381 c 0,14,15
 858 496 858 496 788.5 575.5 c 128,-1,16
 719 655 719 655 599 685 c 1,17,18
 477 655 477 655 406.5 576 c 128,-1,19
 336 497 336 497 336 380 c 0,20,21
 336 266 336 266 402 206 c 128,-1,22
 468 146 468 146 599 146 c 0,11,12
599 -18 m 0,23,24
 464 -18 464 -18 353.5 25 c 128,-1,25
 243 68 243 68 173.5 159.5 c 128,-1,26
 104 251 104 251 104 377 c 0,27,28
 104 514 104 514 176 616 c 128,-1,29
 248 718 248 718 373 770 c 1,30,31
 264 817 264 817 198.5 902 c 128,-1,32
 133 987 133 987 133 1108 c 0,33,34
 133 1283 133 1283 264.5 1381.5 c 128,-1,35
 396 1480 396 1480 598 1480 c 0,36,37
 729 1480 729 1480 832.5 1438.5 c 128,-1,38
 936 1397 936 1397 998.5 1311.5 c 128,-1,39
 1061 1226 1061 1226 1061 1108 c 0,40,41
 1061 879 1061 879 830 771 c 1,42,43
 948 721 948 721 1018.5 616 c 128,-1,44
 1089 511 1089 511 1089 377 c 0,45,46
 1089 282 1089 282 1050 205.5 c 128,-1,47
 1011 129 1011 129 943 81 c 128,-1,48
 875 33 875 33 787 7.5 c 128,-1,49
 699 -18 699 -18 599 -18 c 0,23,24
EndSplineSet
EndChar

StartChar: nine
Encoding: 57 57 28
Width: 1192
GlyphClass: 2
Flags: W
LayerCount: 2
Fore
SplineSet
534 564 m 0,0,1
 454 564 454 564 378 595 c 128,-1,2
 302 626 302 626 241.5 682.5 c 128,-1,3
 181 739 181 739 144 828.5 c 128,-1,4
 107 918 107 918 107 1026 c 0,5,6
 107 1224 107 1224 251.5 1352 c 128,-1,7
 396 1480 396 1480 613 1480 c 0,8,9
 841 1480 841 1480 981.5 1343.5 c 128,-1,10
 1122 1207 1122 1207 1122 998 c 0,11,12
 1122 925 1122 925 1107.5 860 c 128,-1,13
 1093 795 1093 795 1060 729.5 c 128,-1,14
 1027 664 1027 664 997.5 618.5 c 128,-1,15
 968 573 968 573 916 499 c 1,16,-1
 545 0 l 1,17,-1
 289 0 l 1,18,-1
 289 27 l 1,19,-1
 626 468 l 2,20,21
 645 493 645 493 761 627 c 1,22,23
 658 564 658 564 534 564 c 0,0,1
609 725 m 0,24,25
 739 725 739 725 816 799.5 c 128,-1,26
 893 874 893 874 893 1018 c 0,27,28
 893 1143 893 1143 823.5 1218 c 128,-1,29
 754 1293 754 1293 623 1293 c 0,30,31
 489 1293 489 1293 414 1216 c 128,-1,32
 339 1139 339 1139 339 1013 c 0,33,34
 339 880 339 880 407 802.5 c 128,-1,35
 475 725 475 725 609 725 c 0,24,25
EndSplineSet
EndChar

StartChar: colon
Encoding: 58 58 29
Width: 681
GlyphClass: 2
Flags: W
LayerCount: 2
Fore
SplineSet
340 -6 m 0,0,1
 279 -6 279 -6 240.5 35 c 128,-1,2
 202 76 202 76 202 133 c 0,3,4
 202 191 202 191 240.5 232.5 c 128,-1,5
 279 274 279 274 340 274 c 0,6,7
 400 274 400 274 438 232.5 c 128,-1,8
 476 191 476 191 476 133 c 0,9,10
 476 76 476 76 438 35 c 128,-1,11
 400 -6 400 -6 340 -6 c 0,0,1
339 820 m 0,12,13
 278 820 278 820 239.5 861 c 128,-1,14
 201 902 201 902 201 959 c 128,-1,15
 201 1016 201 1016 239.5 1058 c 128,-1,16
 278 1100 278 1100 339 1100 c 0,17,18
 399 1100 399 1100 437 1058 c 128,-1,19
 475 1016 475 1016 475 959 c 128,-1,20
 475 902 475 902 437 861 c 128,-1,21
 399 820 399 820 339 820 c 0,12,13
EndSplineSet
EndChar

StartChar: semicolon
Encoding: 59 59 30
Width: 738
GlyphClass: 2
Flags: W
LayerCount: 2
Fore
SplineSet
222 -306 m 1,0,-1
 276 241 l 1,1,-1
 483 241 l 1,2,-1
 359 -306 l 1,3,-1
 222 -306 l 1,0,-1
378 809 m 0,4,5
 317 809 317 809 278.5 850 c 128,-1,6
 240 891 240 891 240 948 c 0,7,8
 240 1006 240 1006 278.5 1047.5 c 128,-1,9
 317 1089 317 1089 378 1089 c 0,10,11
 438 1089 438 1089 476 1047.5 c 128,-1,12
 514 1006 514 1006 514 948 c 0,13,14
 514 891 514 891 476 850 c 128,-1,15
 438 809 438 809 378 809 c 0,4,5
EndSplineSet
EndChar

StartChar: less
Encoding: 60 60 31
Width: 1107
GlyphClass: 2
Flags: W
LayerCount: 2
Fore
SplineSet
1006 162 m 1,0,-1
 67 623 l 1,1,-1
 67 738 l 1,2,-1
 1007 1231 l 1,3,-1
 1007 1041 l 1,4,-1
 303 686 l 1,5,-1
 1005 359 l 1,6,7
 1005 359 1005 359 1006 162 c 1,0,-1
EndSplineSet
EndChar

StartChar: equal
Encoding: 61 61 32
Width: 1164
GlyphClass: 2
Flags: W
LayerCount: 2
Fore
SplineSet
112 467 m 1,0,-1
 112 652 l 1,1,-1
 1043 652 l 1,2,-1
 1043 467 l 1,3,-1
 112 467 l 1,0,-1
112 859 m 1,4,-1
 112 1044 l 1,5,-1
 1043 1044 l 1,6,-1
 1043 859 l 1,7,-1
 112 859 l 1,4,-1
EndSplineSet
EndChar

StartChar: greater
Encoding: 62 62 33
Width: 1107
GlyphClass: 2
Flags: W
LayerCount: 2
Fore
SplineSet
86 166 m 1,0,-1
 86 364 l 1,1,-1
 787 686 l 1,2,-1
 87 1044 l 1,3,-1
 87 1235 l 1,4,-1
 1027 737 l 1,5,-1
 1027 623 l 1,6,-1
 86 166 l 1,0,-1
EndSplineSet
EndChar

StartChar: question
Encoding: 63 63 34
Width: 994
GlyphClass: 2
Flags: W
LayerCount: 2
Fore
SplineSet
415 1290 m 0,0,1
 316 1290 316 1290 175 1206 c 1,2,-1
 115 1394 l 1,3,4
 180 1452 180 1452 268 1482.5 c 128,-1,5
 356 1513 356 1513 449 1513 c 0,6,7
 526 1513 526 1513 596 1491 c 128,-1,8
 666 1469 666 1469 721.5 1427.5 c 128,-1,9
 777 1386 777 1386 810 1318.5 c 128,-1,10
 843 1251 843 1251 843 1167 c 0,11,12
 843 1077 843 1077 806.5 994 c 128,-1,13
 770 911 770 911 713 844.5 c 128,-1,14
 656 778 656 778 597 717 c 128,-1,15
 538 656 538 656 483.5 585.5 c 128,-1,16
 429 515 429 515 407 449 c 1,17,-1
 331 467 l 1,18,19
 349 567 349 567 382.5 653 c 128,-1,20
 416 739 416 739 450 795 c 128,-1,21
 484 851 484 851 516 902 c 128,-1,22
 548 953 548 953 568 1005.5 c 128,-1,23
 588 1058 588 1058 588 1113 c 0,24,25
 587 1196 587 1196 536 1243 c 128,-1,26
 485 1290 485 1290 415 1290 c 0,0,1
368 -10 m 128,-1,28
 307 -10 307 -10 268 32.5 c 128,-1,29
 229 75 229 75 229 133 c 128,-1,30
 229 191 229 191 267.5 233 c 128,-1,31
 306 275 306 275 368 275 c 0,32,33
 429 275 429 275 466.5 233.5 c 128,-1,34
 504 192 504 192 504 133 c 128,-1,35
 504 74 504 74 466.5 32 c 128,-1,27
 429 -10 429 -10 368 -10 c 128,-1,28
EndSplineSet
EndChar

StartChar: at
Encoding: 64 64 35
Width: 1902
GlyphClass: 2
Flags: W
LayerCount: 2
Fore
SplineSet
879 380 m 0,0,1
 923 380 923 380 958.5 398.5 c 128,-1,2
 994 417 994 417 1017.5 447 c 128,-1,3
 1041 477 1041 477 1059.5 525 c 128,-1,4
 1078 573 1078 573 1089 621.5 c 128,-1,5
 1100 670 1100 670 1111 736 c 0,6,7
 1112 742 1112 742 1119 785 c 128,-1,8
 1126 828 1126 828 1136 889 c 128,-1,9
 1146 950 1146 950 1152 987 c 1,10,11
 1071 1005 1071 1005 1016 1005 c 0,12,13
 926 1005 926 1005 856 948 c 128,-1,14
 786 891 786 891 750.5 802 c 128,-1,15
 715 713 715 713 715 610 c 0,16,17
 715 502 715 502 757 441 c 128,-1,18
 799 380 799 380 879 380 c 0,0,1
926 -151 m 0,19,20
 692 -151 692 -151 513 -54.5 c 128,-1,21
 334 42 334 42 233.5 225.5 c 128,-1,22
 133 409 133 409 133 655 c 0,23,24
 133 803 133 803 174.5 936.5 c 128,-1,25
 216 1070 216 1070 293 1176 c 128,-1,26
 370 1282 370 1282 475 1360 c 128,-1,27
 580 1438 580 1438 713 1480 c 128,-1,28
 846 1522 846 1522 993 1522 c 0,29,30
 1153 1522 1153 1522 1293 1470.5 c 128,-1,31
 1433 1419 1433 1419 1536 1325.5 c 128,-1,32
 1639 1232 1639 1232 1698 1094 c 128,-1,33
 1757 956 1757 956 1757 792 c 0,34,35
 1757 667 1757 667 1722.5 563.5 c 128,-1,36
 1688 460 1688 460 1632.5 396.5 c 128,-1,37
 1577 333 1577 333 1512 299 c 128,-1,38
 1447 265 1447 265 1381 265 c 0,39,40
 1286 265 1286 265 1226.5 321.5 c 128,-1,41
 1167 378 1167 378 1144 479 c 1,42,43
 1102 386 1102 386 1030.5 323.5 c 128,-1,44
 959 261 959 261 862 261 c 0,45,46
 716 261 716 261 637 359.5 c 128,-1,47
 558 458 558 458 558 613 c 0,48,49
 558 689 558 689 576.5 761.5 c 128,-1,50
 595 834 595 834 632 898.5 c 128,-1,51
 669 963 669 963 721 1012 c 128,-1,52
 773 1061 773 1061 845 1089.5 c 128,-1,53
 917 1118 917 1118 1000 1118 c 0,54,55
 1075 1118 1075 1118 1166.5 1098 c 128,-1,56
 1258 1078 1258 1078 1321 1046 c 1,57,58
 1313 986 1313 986 1293.5 861 c 128,-1,59
 1274 736 1274 736 1265 660.5 c 128,-1,60
 1256 585 1256 585 1256 529 c 0,61,62
 1256 466 1256 466 1290.5 426 c 128,-1,63
 1325 386 1325 386 1381 386 c 0,64,65
 1476 386 1476 386 1545 496 c 128,-1,66
 1614 606 1614 606 1614 800 c 0,67,68
 1614 917 1614 917 1575 1021 c 128,-1,69
 1536 1125 1536 1125 1461 1208 c 128,-1,70
 1386 1291 1386 1291 1263.5 1339.5 c 128,-1,71
 1141 1388 1141 1388 986 1388 c 0,72,73
 859 1388 859 1388 747.5 1348.5 c 128,-1,74
 636 1309 636 1309 553.5 1240 c 128,-1,75
 471 1171 471 1171 412 1078.5 c 128,-1,76
 353 986 353 986 323 876.5 c 128,-1,77
 293 767 293 767 293 651 c 0,78,79
 293 510 293 510 335.5 389 c 128,-1,80
 378 268 378 268 457.5 177 c 128,-1,81
 537 86 537 86 658.5 34 c 128,-1,82
 780 -18 780 -18 929 -18 c 0,83,84
 1053 -18 1053 -18 1175 12.5 c 128,-1,85
 1297 43 1297 43 1395 100 c 1,86,-1
 1438 -18 l 1,87,88
 1344 -83 1344 -83 1208.5 -117 c 128,-1,89
 1073 -151 1073 -151 926 -151 c 0,19,20
EndSplineSet
EndChar

StartChar: A
Encoding: 65 65 36
Width: 1383
GlyphClass: 2
Flags: W
LayerCount: 2
Fore
SplineSet
38 0 m 1,0,-1
 544 1456 l 1,1,-1
 835 1456 l 1,2,-1
 1346 0 l 1,3,-1
 1106 0 l 1,4,-1
 956 413 l 1,5,-1
 414 413 l 1,6,-1
 277 0 l 1,7,-1
 38 0 l 1,0,-1
899 587 m 1,8,-1
 690 1248 l 1,9,-1
 471 587 l 1,10,-1
 899 587 l 1,8,-1
EndSplineSet
EndChar

StartChar: B
Encoding: 66 66 37
Width: 1334
GlyphClass: 2
Flags: W
LayerCount: 2
Fore
SplineSet
152 15 m 1,0,-1
 152 1436 l 1,1,2
 391 1457 391 1457 565 1457 c 0,3,4
 793 1457 793 1457 926.5 1417.5 c 128,-1,5
 1060 1378 1060 1378 1117 1298 c 128,-1,6
 1174 1218 1174 1218 1174 1085 c 0,7,8
 1174 862 1174 862 950 776 c 1,9,10
 1219 692 1219 692 1219 430 c 0,11,12
 1219 275 1219 275 1156.5 183 c 128,-1,13
 1094 91 1094 91 941.5 45 c 128,-1,14
 789 -1 789 -1 525 -1 c 0,15,16
 357 -1 357 -1 152 15 c 1,0,-1
392 1262 m 1,17,-1
 392 849 l 1,18,-1
 658 849 l 2,19,20
 799 849 799 849 866 892.5 c 128,-1,21
 933 936 933 936 933 1051 c 0,22,23
 933 1172 933 1172 855 1221 c 128,-1,24
 777 1270 777 1270 583 1270 c 0,25,26
 507 1270 507 1270 392 1262 c 1,17,-1
392 679 m 1,27,-1
 392 191 l 1,28,29
 483 185 483 185 559 185 c 0,30,31
 687 185 687 185 770.5 200.5 c 128,-1,32
 854 216 854 216 900 250.5 c 128,-1,33
 946 285 946 285 963.5 329.5 c 128,-1,34
 981 374 981 374 981 440 c 0,35,36
 981 572 981 572 899 625.5 c 128,-1,37
 817 679 817 679 635 679 c 2,38,-1
 392 679 l 1,27,-1
EndSplineSet
EndChar

StartChar: C
Encoding: 67 67 38
Width: 1448
GlyphClass: 2
Flags: W
LayerCount: 2
Fore
SplineSet
791 1282 m 0,0,1
 579 1282 579 1282 473.5 1149.5 c 128,-1,2
 368 1017 368 1017 368 731 c 128,-1,3
 368 445 368 445 473.5 312.5 c 128,-1,4
 579 180 579 180 791 180 c 0,5,6
 867 180 867 180 930 205 c 128,-1,7
 993 230 993 230 1034.5 272 c 128,-1,8
 1076 314 1076 314 1102.5 360.5 c 128,-1,9
 1129 407 1129 407 1142 459 c 1,10,-1
 1166 459 l 1,11,-1
 1335 384 l 1,12,13
 1321 323 1321 323 1292 266.5 c 128,-1,14
 1263 210 1263 210 1215.5 158 c 128,-1,15
 1168 106 1168 106 1107 67 c 128,-1,16
 1046 28 1046 28 963 5 c 128,-1,17
 880 -18 880 -18 785 -18 c 0,18,19
 467 -18 467 -18 290.5 176 c 128,-1,20
 114 370 114 370 114 731 c 128,-1,21
 114 1092 114 1092 290.5 1286 c 128,-1,22
 467 1480 467 1480 785 1480 c 0,23,24
 880 1480 880 1480 963 1457 c 128,-1,25
 1046 1434 1046 1434 1107 1395 c 128,-1,26
 1168 1356 1168 1356 1215.5 1304 c 128,-1,27
 1263 1252 1263 1252 1292 1195.5 c 128,-1,28
 1321 1139 1321 1139 1335 1078 c 1,29,-1
 1166 1003 l 1,30,-1
 1142 1003 l 1,31,32
 1129 1055 1129 1055 1102.5 1101.5 c 128,-1,33
 1076 1148 1076 1148 1034.5 1190 c 128,-1,34
 993 1232 993 1232 930 1257 c 128,-1,35
 867 1282 867 1282 791 1282 c 0,0,1
EndSplineSet
EndChar

StartChar: D
Encoding: 68 68 39
Width: 1448
GlyphClass: 2
Flags: W
LayerCount: 2
Fore
SplineSet
159 9 m 1,0,-1
 159 1437 l 1,1,2
 369 1472 369 1472 545 1472 c 0,3,4
 749 1472 749 1472 896.5 1423.5 c 128,-1,5
 1044 1375 1044 1375 1134.5 1280.5 c 128,-1,6
 1225 1186 1225 1186 1267.5 1055 c 128,-1,7
 1310 924 1310 924 1310 751 c 0,8,9
 1310 -7 1310 -7 432 -7 c 0,10,11
 302 -7 302 -7 159 9 c 1,0,-1
399 1263 m 1,12,-1
 399 191 l 1,13,14
 429 189 429 189 485 189 c 0,15,16
 621 189 621 189 724 220 c 128,-1,17
 827 251 827 251 890 301.5 c 128,-1,18
 953 352 953 352 992.5 426 c 128,-1,19
 1032 500 1032 500 1046.5 576.5 c 128,-1,20
 1061 653 1061 653 1061 746 c 0,21,22
 1061 807 1061 807 1056.5 857.5 c 128,-1,23
 1052 908 1052 908 1038.5 964 c 128,-1,24
 1025 1020 1025 1020 1003 1063 c 128,-1,25
 981 1106 981 1106 942.5 1147 c 128,-1,26
 904 1188 904 1188 852 1214.5 c 128,-1,27
 800 1241 800 1241 725.5 1257 c 128,-1,28
 651 1273 651 1273 558 1273 c 0,29,30
 482 1273 482 1273 399 1263 c 1,12,-1
EndSplineSet
EndChar

StartChar: E
Encoding: 69 69 40
Width: 1278
GlyphClass: 2
Flags: W
LayerCount: 2
Fore
SplineSet
159 0 m 1,0,-1
 159 1456 l 1,1,-1
 1123 1456 l 1,2,-1
 1110 1266 l 1,3,-1
 399 1266 l 1,4,-1
 399 845 l 1,5,-1
 1070 845 l 1,6,-1
 1070 654 l 1,7,-1
 399 654 l 1,8,-1
 399 195 l 1,9,-1
 1140 195 l 1,10,-1
 1132 0 l 1,11,-1
 159 0 l 1,0,-1
EndSplineSet
EndChar

StartChar: F
Encoding: 70 70 41
Width: 1192
GlyphClass: 2
Flags: W
LayerCount: 2
Fore
SplineSet
165 0 m 1,0,-1
 165 1456 l 1,1,-1
 1116 1456 l 1,2,-1
 1102 1259 l 1,3,-1
 405 1259 l 1,4,-1
 405 817 l 1,5,-1
 1056 817 l 1,6,-1
 1056 629 l 1,7,-1
 405 629 l 1,8,-1
 405 0 l 1,9,-1
 165 0 l 1,0,-1
EndSplineSet
EndChar

StartChar: G
Encoding: 71 71 42
Width: 1448
GlyphClass: 2
Flags: W
LayerCount: 2
Fore
SplineSet
786 -18 m 0,0,1
 460 -18 460 -18 287 177.5 c 128,-1,2
 114 373 114 373 114 718 c 0,3,4
 114 1066 114 1066 300 1261 c 128,-1,5
 486 1456 486 1456 804 1456 c 0,6,7
 982 1456 982 1456 1106 1395.5 c 128,-1,8
 1230 1335 1230 1335 1297 1236 c 1,9,-1
 1154 1092 l 1,10,11
 1027 1252 1027 1252 818 1252 c 0,12,13
 596 1252 596 1252 482 1114.5 c 128,-1,14
 368 977 368 977 368 721 c 0,15,16
 368 454 368 454 469.5 320 c 128,-1,17
 571 186 571 186 806 186 c 0,18,19
 954 186 954 186 1067 219 c 1,20,-1
 1067 597 l 1,21,-1
 741 615 l 1,22,-1
 750 798 l 1,23,-1
 1287 798 l 1,24,-1
 1287 85 l 1,25,26
 1043 -18 1043 -18 786 -18 c 0,0,1
EndSplineSet
EndChar

StartChar: H
Encoding: 72 72 43
Width: 1476
GlyphClass: 2
Flags: W
LayerCount: 2
Fore
SplineSet
159 0 m 1,0,-1
 159 1456 l 1,1,-1
 399 1456 l 1,2,-1
 399 844 l 1,3,-1
 1055 844 l 1,4,-1
 1055 1456 l 1,5,-1
 1295 1456 l 1,6,-1
 1295 0 l 1,7,-1
 1055 0 l 1,8,-1
 1055 651 l 1,9,-1
 399 651 l 1,10,-1
 399 0 l 1,11,-1
 159 0 l 1,0,-1
EndSplineSet
EndChar

StartChar: I
Encoding: 73 73 44
Width: 1050
GlyphClass: 2
Flags: W
LayerCount: 2
Fore
SplineSet
190 1456 m 1,0,-1
 838 1456 l 1,1,-1
 838 1303 l 1,2,-1
 636 1303 l 1,3,-1
 636 153 l 1,4,-1
 838 153 l 1,5,-1
 838 0 l 1,6,-1
 190 0 l 1,7,-1
 190 153 l 1,8,-1
 396 153 l 1,9,-1
 396 1303 l 1,10,-1
 190 1303 l 1,11,-1
 190 1456 l 1,0,-1
EndSplineSet
EndChar

StartChar: J
Encoding: 74 74 45
Width: 880
GlyphClass: 2
Flags: W
LayerCount: 2
Fore
SplineSet
164 -209 m 2,0,-1
 92 -216 l 1,1,-1
 70 -23 l 1,2,-1
 155 -11 l 2,3,4
 231 -1 231 -1 278 15 c 128,-1,5
 325 31 325 31 359 62 c 128,-1,6
 393 93 393 93 407 142.5 c 128,-1,7
 421 192 421 192 421 268 c 2,8,-1
 421 1456 l 1,9,-1
 661 1456 l 1,10,-1
 661 263 l 2,11,12
 661 175 661 175 648 108.5 c 128,-1,13
 635 42 635 42 607 -7.5 c 128,-1,14
 579 -57 579 -57 540 -91.5 c 128,-1,15
 501 -126 501 -126 443 -149.5 c 128,-1,16
 385 -173 385 -173 319 -186.5 c 128,-1,17
 253 -200 253 -200 164 -209 c 2,0,-1
EndSplineSet
EndChar

StartChar: K
Encoding: 75 75 46
Width: 1363
GlyphClass: 2
Flags: W
LayerCount: 2
Fore
SplineSet
159 0 m 1,0,-1
 159 1456 l 1,1,-1
 399 1456 l 1,2,-1
 399 769 l 1,3,-1
 1006 1456 l 1,4,-1
 1290 1456 l 1,5,-1
 712 801 l 1,6,-1
 1323 0 l 1,7,-1
 1035 0 l 1,8,-1
 524 672 l 1,9,-1
 399 539 l 1,10,-1
 399 0 l 1,11,-1
 159 0 l 1,0,-1
EndSplineSet
EndChar

StartChar: L
Encoding: 76 76 47
Width: 1107
GlyphClass: 2
Flags: W
LayerCount: 2
Fore
SplineSet
165 0 m 1,0,-1
 165 1456 l 1,1,-1
 405 1456 l 1,2,-1
 405 184 l 1,3,-1
 1076 184 l 1,4,-1
 1064 0 l 1,5,-1
 165 0 l 1,0,-1
EndSplineSet
EndChar

StartChar: M
Encoding: 77 77 48
Width: 1817
GlyphClass: 2
Flags: W
LayerCount: 2
Fore
SplineSet
152 0 m 1,0,-1
 152 545 l 1,1,-1
 175 1456 l 1,2,-1
 445 1456 l 1,3,-1
 902 491 l 1,4,-1
 1363 1456 l 1,5,-1
 1626 1456 l 1,6,-1
 1649 549 l 1,7,-1
 1649 0 l 1,8,-1
 1426 0 l 1,9,-1
 1426 518 l 1,10,-1
 1418 818 l 1,11,-1
 1416 1092 l 1,12,-1
 986 206 l 1,13,-1
 811 206 l 1,14,-1
 385 1099 l 1,15,-1
 382 815 l 1,16,-1
 374 515 l 1,17,-1
 374 0 l 1,18,-1
 152 0 l 1,0,-1
EndSplineSet
EndChar

StartChar: N
Encoding: 78 78 49
Width: 1476
GlyphClass: 2
Flags: W
LayerCount: 2
Fore
SplineSet
171 0 m 1,0,-1
 171 1456 l 1,1,-1
 433 1456 l 1,2,-1
 1090 326 l 1,3,-1
 1079 788 l 1,4,-1
 1079 1456 l 1,5,-1
 1307 1456 l 1,6,-1
 1307 0 l 1,7,-1
 1035 0 l 1,8,-1
 384 1109 l 1,9,-1
 399 560 l 1,10,-1
 399 0 l 1,11,-1
 171 0 l 1,0,-1
EndSplineSet
EndChar

StartChar: O
Encoding: 79 79 50
Width: 1533
GlyphClass: 2
Flags: W
LayerCount: 2
Fore
SplineSet
772 -18 m 0,0,1
 448 -18 448 -18 278 176.5 c 128,-1,2
 108 371 108 371 108 725 c 0,3,4
 108 1085 108 1085 279.5 1282.5 c 128,-1,5
 451 1480 451 1480 772 1480 c 0,6,7
 1090 1480 1090 1480 1260.5 1281.5 c 128,-1,8
 1431 1083 1431 1083 1431 724 c 0,9,10
 1431 371 1431 371 1262.5 176.5 c 128,-1,11
 1094 -18 1094 -18 772 -18 c 0,0,1
771 186 m 0,12,13
 1177 186 1177 186 1177 724 c 0,14,15
 1177 897 1177 897 1136.5 1017.5 c 128,-1,16
 1096 1138 1096 1138 1004.5 1207 c 128,-1,17
 913 1276 913 1276 772 1276 c 0,18,19
 563 1276 563 1276 462.5 1131 c 128,-1,20
 362 986 362 986 362 724 c 0,21,22
 362 468 362 468 461 327 c 128,-1,23
 560 186 560 186 771 186 c 0,12,13
EndSplineSet
EndChar

StartChar: P
Encoding: 80 80 51
Width: 1334
GlyphClass: 2
Flags: W
LayerCount: 2
Fore
SplineSet
165 0 m 1,0,-1
 165 1438 l 1,1,2
 430 1473 430 1473 614 1473 c 0,3,4
 840 1473 840 1473 978.5 1422 c 128,-1,5
 1117 1371 1117 1371 1175 1277.5 c 128,-1,6
 1233 1184 1233 1184 1233 1039 c 0,7,8
 1233 981 1233 981 1227.5 934.5 c 128,-1,9
 1222 888 1222 888 1205.5 837.5 c 128,-1,10
 1189 787 1189 787 1161.5 748.5 c 128,-1,11
 1134 710 1134 710 1088 674 c 128,-1,12
 1042 638 1042 638 979.5 615 c 128,-1,13
 917 592 917 592 828 578.5 c 128,-1,14
 739 565 739 565 628 565 c 0,15,16
 518 565 518 565 405 576 c 1,17,-1
 405 0 l 1,18,-1
 165 0 l 1,0,-1
995 1013 m 0,19,20
 995 1067 995 1067 989.5 1102.5 c 128,-1,21
 984 1138 984 1138 963 1175 c 128,-1,22
 942 1212 942 1212 904.5 1233 c 128,-1,23
 867 1254 867 1254 800 1267.5 c 128,-1,24
 733 1281 733 1281 638 1281 c 0,25,26
 547 1281 547 1281 405 1267 c 1,27,-1
 405 762 l 1,28,29
 523 750 523 750 611 750 c 0,30,31
 706 750 706 750 776 764 c 128,-1,32
 846 778 846 778 887.5 800.5 c 128,-1,33
 929 823 929 823 953.5 858 c 128,-1,34
 978 893 978 893 986.5 929 c 128,-1,35
 995 965 995 965 995 1013 c 0,19,20
EndSplineSet
EndChar

StartChar: Q
Encoding: 81 81 52
Width: 1533
GlyphClass: 2
Flags: W
LayerCount: 2
Fore
SplineSet
771 186 m 0,0,1
 1177 186 1177 186 1177 724 c 0,2,3
 1177 897 1177 897 1136.5 1017.5 c 128,-1,4
 1096 1138 1096 1138 1004.5 1207 c 128,-1,5
 913 1276 913 1276 772 1276 c 0,6,7
 563 1276 563 1276 462.5 1131 c 128,-1,8
 362 986 362 986 362 724 c 0,9,10
 362 468 362 468 461 327 c 128,-1,11
 560 186 560 186 771 186 c 0,0,1
1121 -508 m 1,12,-1
 794 -18 l 1,13,-1
 772 -18 l 2,14,15
 448 -18 448 -18 278 176.5 c 128,-1,16
 108 371 108 371 108 725 c 0,17,18
 108 1085 108 1085 279.5 1282.5 c 128,-1,19
 451 1480 451 1480 772 1480 c 0,20,21
 1090 1480 1090 1480 1260.5 1281.5 c 128,-1,22
 1431 1083 1431 1083 1431 724 c 0,23,24
 1431 443 1431 443 1322.5 260.5 c 128,-1,25
 1214 78 1214 78 1005 14 c 1,26,-1
 1283 -398 l 1,27,-1
 1121 -508 l 1,12,-1
EndSplineSet
EndChar

StartChar: R
Encoding: 82 82 53
Width: 1363
GlyphClass: 2
Flags: W
LayerCount: 2
Fore
SplineSet
159 0 m 1,0,-1
 159 1438 l 1,1,2
 425 1473 425 1473 609 1473 c 0,3,4
 779 1473 779 1473 898 1445.5 c 128,-1,5
 1017 1418 1017 1418 1088 1362.5 c 128,-1,6
 1159 1307 1159 1307 1190.5 1230.5 c 128,-1,7
 1222 1154 1222 1154 1222 1048 c 0,8,9
 1222 966 1222 966 1202 903 c 128,-1,10
 1182 840 1182 840 1143.5 797.5 c 128,-1,11
 1105 755 1105 755 1060 727.5 c 128,-1,12
 1015 700 1015 700 955 678 c 1,13,-1
 1278 0 l 1,14,-1
 1009 0 l 1,15,-1
 725 629 l 1,16,17
 674 625 674 625 616 625 c 0,18,19
 533 625 533 625 399 637 c 1,20,-1
 399 0 l 1,21,-1
 159 0 l 1,0,-1
399 816 m 1,22,23
 537 806 537 806 618 806 c 0,24,25
 816 806 816 806 896 859 c 128,-1,26
 976 912 976 912 976 1044 c 0,27,28
 976 1105 976 1105 961.5 1146 c 128,-1,29
 947 1187 947 1187 909.5 1218.5 c 128,-1,30
 872 1250 872 1250 804 1265 c 128,-1,31
 736 1280 736 1280 633 1280 c 128,-1,32
 530 1280 530 1280 399 1267 c 1,33,-1
 399 816 l 1,22,23
EndSplineSet
EndChar

StartChar: S
Encoding: 83 83 54
Width: 1221
GlyphClass: 2
Flags: W
LayerCount: 2
Fore
SplineSet
1098 399 m 0,0,1
 1098 291 1098 291 1056.5 209 c 128,-1,2
 1015 127 1015 127 943 78.5 c 128,-1,3
 871 30 871 30 782.5 6.5 c 128,-1,4
 694 -17 694 -17 592 -17 c 0,5,6
 445 -17 445 -17 313.5 48 c 128,-1,7
 182 113 182 113 108 202 c 1,8,-1
 271 334 l 1,9,10
 331 269 331 269 415.5 227 c 128,-1,11
 500 185 500 185 591 185 c 0,12,13
 711 185 711 185 784 234.5 c 128,-1,14
 857 284 857 284 857 387 c 0,15,16
 857 467 857 467 818 508.5 c 128,-1,17
 779 550 779 550 662 600 c 0,18,19
 614 620 614 620 549 645.5 c 128,-1,20
 484 671 484 671 444 686.5 c 128,-1,21
 404 702 404 702 354 725 c 128,-1,22
 304 748 304 748 273.5 769 c 128,-1,23
 243 790 243 790 211 821 c 128,-1,24
 179 852 179 852 161.5 888 c 128,-1,25
 144 924 144 924 133 973 c 128,-1,26
 122 1022 122 1022 122 1083 c 0,27,28
 122 1188 122 1188 163 1267 c 128,-1,29
 204 1346 204 1346 274.5 1391 c 128,-1,30
 345 1436 345 1436 429 1458 c 128,-1,31
 513 1480 513 1480 610 1480 c 0,32,33
 771 1480 771 1480 890.5 1416.5 c 128,-1,34
 1010 1353 1010 1353 1070 1254 c 1,35,-1
 900 1140 l 1,36,37
 860 1206 860 1206 785 1244 c 128,-1,38
 710 1282 710 1282 623 1282 c 0,39,40
 506 1282 506 1282 432 1236.5 c 128,-1,41
 358 1191 358 1191 358 1097 c 0,42,43
 358 1028 358 1028 386 991.5 c 128,-1,44
 414 955 414 955 488 922 c 0,45,46
 545 897 545 897 618 868.5 c 128,-1,47
 691 840 691 840 738 822 c 128,-1,48
 785 804 785 804 840.5 779.5 c 128,-1,49
 896 755 896 755 930.5 733 c 128,-1,50
 965 711 965 711 1000 678 c 128,-1,51
 1035 645 1035 645 1054.5 607 c 128,-1,52
 1074 569 1074 569 1086 516.5 c 128,-1,53
 1098 464 1098 464 1098 399 c 0,0,1
EndSplineSet
EndChar

StartChar: T
Encoding: 84 84 55
Width: 1221
GlyphClass: 2
Flags: W
LayerCount: 2
Fore
SplineSet
485 0 m 1,0,-1
 485 1272 l 1,1,-1
 44 1272 l 1,2,-1
 44 1456 l 1,3,-1
 1167 1456 l 1,4,-1
 1167 1272 l 1,5,-1
 725 1272 l 1,6,-1
 725 0 l 1,7,-1
 485 0 l 1,0,-1
EndSplineSet
EndChar

StartChar: U
Encoding: 85 85 56
Width: 1420
GlyphClass: 2
Flags: W
LayerCount: 2
Fore
SplineSet
702 -18 m 0,0,1
 422 -18 422 -18 280.5 128 c 128,-1,2
 139 274 139 274 139 537 c 2,3,-1
 139 1456 l 1,4,-1
 379 1456 l 1,5,-1
 379 550 l 2,6,7
 379 366 379 366 456.5 276 c 128,-1,8
 534 186 534 186 702 186 c 128,-1,9
 870 186 870 186 949.5 277 c 128,-1,10
 1029 368 1029 368 1029 551 c 2,11,-1
 1029 1456 l 1,12,-1
 1269 1456 l 1,13,-1
 1269 535 l 2,14,15
 1269 276 1269 276 1125 129 c 128,-1,16
 981 -18 981 -18 702 -18 c 0,0,1
EndSplineSet
EndChar

StartChar: V
Encoding: 86 86 57
Width: 1221
GlyphClass: 2
Flags: W
LayerCount: 2
Fore
SplineSet
465 0 m 1,0,-1
 -19 1456 l 1,1,-1
 232 1456 l 1,2,-1
 513 600 l 1,3,-1
 609 287 l 1,4,5
 663 462 663 462 726.5 657.5 c 128,-1,6
 790 853 790 853 867 1088.5 c 128,-1,7
 944 1324 944 1324 987 1456 c 1,8,-1
 1242 1456 l 1,9,-1
 733 0 l 1,10,-1
 465 0 l 1,0,-1
EndSplineSet
EndChar

StartChar: W
Encoding: 87 87 58
Width: 1846
GlyphClass: 2
Flags: W
LayerCount: 2
Fore
SplineSet
393 0 m 1,0,-1
 18 1456 l 1,1,-1
 256 1456 l 1,2,-1
 520 344 l 1,3,-1
 804 1438 l 1,4,-1
 1037 1438 l 1,5,-1
 1302 338 l 1,6,-1
 1584 1456 l 1,7,-1
 1830 1456 l 1,8,-1
 1432 0 l 1,9,-1
 1185 0 l 1,10,-1
 921 1081 l 1,11,-1
 631 0 l 1,12,-1
 393 0 l 1,0,-1
EndSplineSet
EndChar

StartChar: X
Encoding: 88 88 59
Width: 1306
GlyphClass: 2
Flags: W
LayerCount: 2
Fore
SplineSet
1010 0 m 1,0,-1
 651 544 l 1,1,-1
 274 0 l 1,2,-1
 25 0 l 1,3,-1
 519 745 l 1,4,-1
 49 1456 l 1,5,-1
 321 1456 l 1,6,-1
 670 928 l 1,7,-1
 1007 1456 l 1,8,-1
 1262 1456 l 1,9,-1
 798 734 l 1,10,-1
 1283 0 l 1,11,-1
 1010 0 l 1,0,-1
EndSplineSet
EndChar

StartChar: Y
Encoding: 89 89 60
Width: 1164
GlyphClass: 2
Flags: W
LayerCount: 2
Fore
SplineSet
460 0 m 1,0,-1
 460 539 l 1,1,-1
 -38 1456 l 1,2,-1
 209 1456 l 1,3,-1
 579 762 l 1,4,-1
 944 1456 l 1,5,-1
 1197 1456 l 1,6,-1
 700 540 l 1,7,-1
 700 0 l 1,8,-1
 460 0 l 1,0,-1
EndSplineSet
EndChar

StartChar: Z
Encoding: 90 90 61
Width: 1221
GlyphClass: 2
Flags: W
LayerCount: 2
Fore
SplineSet
89 0 m 1,0,-1
 89 164 l 1,1,-1
 826 1272 l 1,2,-1
 117 1272 l 1,3,-1
 109 1456 l 1,4,-1
 1102 1456 l 1,5,-1
 1105 1285 l 1,6,-1
 361 184 l 1,7,-1
 1118 184 l 1,8,-1
 1138 0 l 1,9,-1
 89 0 l 1,0,-1
EndSplineSet
EndChar

StartChar: bracketleft
Encoding: 91 91 62
Width: 823
GlyphClass: 2
Flags: W
LayerCount: 2
Fore
SplineSet
222 -252 m 1,0,-1
 222 1480 l 1,1,-1
 677 1480 l 1,2,-1
 677 1314 l 1,3,-1
 436 1314 l 1,4,-1
 436 -86 l 1,5,-1
 677 -86 l 1,6,-1
 677 -252 l 1,7,-1
 222 -252 l 1,0,-1
EndSplineSet
EndChar

StartChar: backslash
Encoding: 92 92 63
Width: 937
GlyphClass: 2
Flags: W
LayerCount: 2
Fore
SplineSet
603 0 m 1,0,-1
 95 1492 l 1,1,-1
 293 1492 l 1,2,-1
 798 0 l 1,3,-1
 603 0 l 1,0,-1
EndSplineSet
EndChar

StartChar: bracketright
Encoding: 93 93 64
Width: 965
GlyphClass: 2
Flags: W
LayerCount: 2
Fore
SplineSet
747 1480 m 1,0,-1
 747 -252 l 1,1,-1
 292 -252 l 1,2,-1
 292 -86 l 1,3,-1
 533 -86 l 1,4,-1
 533 1314 l 1,5,-1
 292 1314 l 1,6,-1
 292 1480 l 1,7,-1
 747 1480 l 1,0,-1
EndSplineSet
EndChar

StartChar: asciicircum
Encoding: 94 94 65
Width: 1136
GlyphClass: 2
Flags: W
LayerCount: 2
Fore
SplineSet
54 545 m 1,0,-1
 497 1480 l 1,1,-1
 614 1480 l 1,2,-1
 1083 545 l 1,3,-1
 899 545 l 1,4,-1
 557 1240 l 1,5,-1
 237 545 l 1,6,-1
 54 545 l 1,0,-1
EndSplineSet
EndChar

StartChar: underscore
Encoding: 95 95 66
Width: 1165
GlyphClass: 2
Flags: W
LayerCount: 2
Fore
SplineSet
107 -221 m 1,0,-1
 107 -59 l 1,1,-1
 1058 -59 l 1,2,-1
 1058 -221 l 1,3,-1
 107 -221 l 1,0,-1
EndSplineSet
EndChar

StartChar: grave
Encoding: 96 96 67
Width: 937
GlyphClass: 2
Flags: W
LayerCount: 2
Fore
SplineSet
429 1276 m 1,0,-1
 120 1687 l 1,1,-1
 385 1687 l 1,2,-1
 570 1276 l 1,3,-1
 429 1276 l 1,0,-1
EndSplineSet
EndChar

StartChar: a
Encoding: 97 97 68
Width: 1107
GlyphClass: 2
Flags: W
LayerCount: 2
Fore
SplineSet
447 -18 m 0,0,1
 294 -18 294 -18 196.5 63 c 128,-1,2
 99 144 99 144 99 299 c 0,3,4
 99 467 99 467 215 547 c 128,-1,5
 331 627 331 627 536 627 c 0,6,7
 676 627 676 627 762 621 c 1,8,-1
 762 697 l 2,9,10
 762 816 762 816 711 871.5 c 128,-1,11
 660 927 660 927 557 927 c 0,12,13
 456 927 456 927 370 888 c 128,-1,14
 284 849 284 849 235 789 c 1,15,-1
 216 789 l 1,16,-1
 107 906 l 1,17,18
 254 1101 254 1101 560 1101 c 0,19,20
 653 1101 653 1101 728 1076.5 c 128,-1,21
 803 1052 803 1052 860.5 1001.5 c 128,-1,22
 918 951 918 951 949.5 867 c 128,-1,23
 981 783 981 783 981 671 c 2,24,-1
 981 0 l 1,25,-1
 819 0 l 1,26,-1
 785 151 l 1,27,28
 732 73 732 73 646 27.5 c 128,-1,29
 560 -18 560 -18 447 -18 c 0,0,1
761 470 m 1,30,31
 653 474 653 474 586 474 c 0,32,33
 440 474 440 474 373 435 c 128,-1,34
 306 396 306 396 306 306 c 0,35,36
 306 227 306 227 348.5 187 c 128,-1,37
 391 147 391 147 465 147 c 0,38,39
 654 147 654 147 761 282 c 1,40,-1
 761 470 l 1,30,31
EndSplineSet
EndChar

StartChar: b
Encoding: 98 98 69
Width: 1192
GlyphClass: 2
Flags: W
LayerCount: 2
Fore
SplineSet
673 -18 m 0,0,1
 560 -18 560 -18 480 21 c 128,-1,2
 400 60 400 60 356 123 c 1,3,-1
 340 0 l 1,4,-1
 153 0 l 1,5,-1
 153 1540 l 1,6,-1
 375 1560 l 1,7,-1
 375 1128 l 1,8,-1
 372 891 l 1,9,10
 415 993 415 993 494 1047 c 128,-1,11
 573 1101 573 1101 678 1101 c 0,12,13
 884 1101 884 1101 993.5 950 c 128,-1,14
 1103 799 1103 799 1103 546 c 0,15,16
 1103 288 1103 288 990 135 c 128,-1,17
 877 -18 877 -18 673 -18 c 0,0,1
628 156 m 0,18,19
 877 156 877 156 877 545 c 0,20,21
 877 739 877 739 822 833 c 128,-1,22
 767 927 767 927 645 927 c 0,23,24
 513 927 513 927 441.5 836 c 128,-1,25
 370 745 370 745 370 562 c 2,26,-1
 370 280 l 1,27,28
 391 253 391 253 408 236 c 128,-1,29
 425 219 425 219 456 198 c 128,-1,30
 487 177 487 177 530 166.5 c 128,-1,31
 573 156 573 156 628 156 c 0,18,19
EndSplineSet
EndChar

StartChar: c
Encoding: 99 99 70
Width: 1079
GlyphClass: 2
Flags: W
LayerCount: 2
Fore
SplineSet
319 541 m 128,-1,1
 319 357 319 357 398 256.5 c 128,-1,2
 477 156 477 156 628 156 c 0,3,4
 787 156 787 156 880 303 c 1,5,-1
 894 303 l 1,6,-1
 1019 216 l 1,7,8
 999 180 999 180 978 151 c 128,-1,9
 957 122 957 122 921.5 89 c 128,-1,10
 886 56 886 56 845 34 c 128,-1,11
 804 12 804 12 743 -3 c 128,-1,12
 682 -18 682 -18 611 -18 c 0,13,14
 379 -18 379 -18 236 132.5 c 128,-1,15
 93 283 93 283 93 541 c 128,-1,16
 93 799 93 799 236.5 950 c 128,-1,17
 380 1101 380 1101 611 1101 c 0,18,19
 682 1101 682 1101 743 1086 c 128,-1,20
 804 1071 804 1071 845 1049 c 128,-1,21
 886 1027 886 1027 921.5 994 c 128,-1,22
 957 961 957 961 978 932 c 128,-1,23
 999 903 999 903 1019 867 c 1,24,-1
 894 780 l 1,25,-1
 880 780 l 1,26,27
 787 927 787 927 628 927 c 0,28,29
 477 927 477 927 398 826 c 128,-1,0
 319 725 319 725 319 541 c 128,-1,1
EndSplineSet
EndChar

StartChar: d
Encoding: 100 100 71
Width: 1192
GlyphClass: 2
Flags: W
LayerCount: 2
Fore
SplineSet
580 156 m 0,0,1
 665 156 665 156 734 187.5 c 128,-1,2
 803 219 803 219 826 253 c 1,3,-1
 826 807 l 1,4,5
 792 861 792 861 728.5 894 c 128,-1,6
 665 927 665 927 582 927 c 0,7,8
 460 927 460 927 389.5 834.5 c 128,-1,9
 319 742 319 742 319 547 c 128,-1,10
 319 352 319 352 385.5 254 c 128,-1,11
 452 156 452 156 580 156 c 0,0,1
552 1101 m 0,12,13
 653 1101 653 1101 721.5 1066 c 128,-1,14
 790 1031 790 1031 826 979 c 1,15,-1
 819 1135 l 1,16,-1
 819 1540 l 1,17,-1
 1043 1560 l 1,18,-1
 1043 0 l 1,19,-1
 857 0 l 1,20,-1
 841 102 l 1,21,22
 746 -18 746 -18 555 -18 c 0,23,24
 458 -18 458 -18 375.5 16 c 128,-1,25
 293 50 293 50 229.5 118 c 128,-1,26
 166 186 166 186 129.5 297 c 128,-1,27
 93 408 93 408 93 551 c 0,28,29
 93 685 93 685 128.5 791.5 c 128,-1,30
 164 898 164 898 226.5 964.5 c 128,-1,31
 289 1031 289 1031 372 1066 c 128,-1,32
 455 1101 455 1101 552 1101 c 0,12,13
EndSplineSet
EndChar

StartChar: e
Encoding: 101 101 72
Width: 1111
GlyphClass: 2
Flags: W
LayerCount: 2
Fore
SplineSet
993 98 m 1,0,1
 934 47 934 47 835 14.5 c 128,-1,2
 736 -18 736 -18 617 -18 c 0,3,4
 502 -18 502 -18 405 19 c 128,-1,5
 308 56 308 56 237 125.5 c 128,-1,6
 166 195 166 195 126 301 c 128,-1,7
 86 407 86 407 86 540 c 0,8,9
 86 791 86 791 228 946 c 128,-1,10
 370 1101 370 1101 581 1101 c 0,11,12
 789 1101 789 1101 901 963 c 128,-1,13
 1013 825 1013 825 1013 586 c 0,14,15
 1013 560 1013 560 1011 531.5 c 128,-1,16
 1009 503 1009 503 1007 488 c 2,17,-1
 1005 473 l 1,18,-1
 314 473 l 1,19,20
 320 386 320 386 350.5 322 c 128,-1,21
 381 258 381 258 428 223 c 128,-1,22
 475 188 475 188 528 172 c 128,-1,23
 581 156 581 156 642 156 c 0,24,25
 725 156 725 156 798.5 182 c 128,-1,26
 872 208 872 208 922 246 c 1,27,-1
 935 246 l 1,28,-1
 993 98 l 1,0,1
317 621 m 1,29,-1
 817 621 l 1,30,31
 811 782 811 782 755 857.5 c 128,-1,32
 699 933 699 933 592 933 c 0,33,34
 482 933 482 933 404.5 851.5 c 128,-1,35
 327 770 327 770 317 621 c 1,29,-1
EndSplineSet
EndChar

StartChar: f
Encoding: 102 102 73
Width: 795
GlyphClass: 2
Flags: W
LayerCount: 2
Fore
SplineSet
611 1349 m 0,0,1
 565 1349 565 1349 539 1343 c 128,-1,2
 513 1337 513 1337 493.5 1317 c 128,-1,3
 474 1297 474 1297 467 1260 c 128,-1,4
 460 1223 460 1223 460 1160 c 2,5,-1
 460 1082 l 1,6,-1
 729 1082 l 1,7,-1
 729 933 l 1,8,-1
 460 933 l 1,9,-1
 460 0 l 1,10,-1
 236 0 l 1,11,-1
 236 933 l 1,12,-1
 67 933 l 1,13,-1
 72 1063 l 1,14,-1
 236 1080 l 1,15,-1
 236 1160 l 2,16,17
 236 1246 236 1246 252 1309.5 c 128,-1,18
 268 1373 268 1373 296 1412.5 c 128,-1,19
 324 1452 324 1452 367 1475.5 c 128,-1,20
 410 1499 410 1499 457.5 1507.5 c 128,-1,21
 505 1516 505 1516 568 1516 c 0,22,23
 619 1516 619 1516 666.5 1511 c 128,-1,24
 714 1506 714 1506 736 1501 c 2,25,-1
 759 1496 l 1,26,-1
 743 1340 l 1,27,28
 678 1349 678 1349 611 1349 c 0,0,1
EndSplineSet
EndChar

StartChar: g
Encoding: 103 103 74
Width: 1192
GlyphClass: 2
Flags: W
LayerCount: 2
Fore
SplineSet
581 156 m 0,0,1
 663 156 663 156 731.5 186.5 c 128,-1,2
 800 217 800 217 826 251 c 1,3,-1
 826 807 l 1,4,5
 792 861 792 861 728.5 894 c 128,-1,6
 665 927 665 927 583 927 c 0,7,8
 463 927 463 927 391 836.5 c 128,-1,9
 319 746 319 746 319 554 c 0,10,11
 319 156 319 156 581 156 c 0,0,1
537 -320 m 0,12,13
 623 -320 623 -320 684.5 -295 c 128,-1,14
 746 -270 746 -270 780 -225.5 c 128,-1,15
 814 -181 814 -181 829.5 -128 c 128,-1,16
 845 -75 845 -75 845 -10 c 0,17,18
 845 16 845 16 844 29 c 2,19,-1
 838 104 l 1,20,21
 742 -19 742 -19 552 -19 c 0,22,23
 343 -19 343 -19 218 126.5 c 128,-1,24
 93 272 93 272 93 554 c 0,25,26
 93 688 93 688 129 794 c 128,-1,27
 165 900 165 900 228 966 c 128,-1,28
 291 1032 291 1032 374 1066.5 c 128,-1,29
 457 1101 457 1101 554 1101 c 0,30,31
 661 1101 661 1101 730 1063 c 128,-1,32
 799 1025 799 1025 833 968 c 1,33,-1
 838 1082 l 1,34,-1
 1043 1082 l 1,35,-1
 1043 50 l 2,36,37
 1043 -42 1043 -42 1027.5 -122 c 128,-1,38
 1012 -202 1012 -202 975.5 -272.5 c 128,-1,39
 939 -343 939 -343 883.5 -393 c 128,-1,40
 828 -443 828 -443 743.5 -472 c 128,-1,41
 659 -501 659 -501 553 -501 c 0,42,43
 377 -501 377 -501 204 -457 c 1,44,-1
 223 -282 l 1,45,-1
 249 -282 l 1,46,47
 384 -320 384 -320 537 -320 c 0,12,13
EndSplineSet
EndChar

StartChar: h
Encoding: 104 104 75
Width: 1164
GlyphClass: 2
Flags: W
LayerCount: 2
Fore
SplineSet
349 890 m 1,0,1
 401 993 401 993 486.5 1047 c 128,-1,2
 572 1101 572 1101 685 1101 c 0,3,4
 855 1101 855 1101 948 990.5 c 128,-1,5
 1041 880 1041 880 1041 671 c 2,6,-1
 1041 0 l 1,7,-1
 817 0 l 1,8,-1
 817 654 l 2,9,10
 817 794 817 794 771 860.5 c 128,-1,11
 725 927 725 927 624 927 c 0,12,13
 567 927 567 927 520 904 c 128,-1,14
 473 881 473 881 443 843.5 c 128,-1,15
 413 806 413 806 392.5 756.5 c 128,-1,16
 372 707 372 707 363.5 655.5 c 128,-1,17
 355 604 355 604 355 551 c 2,18,-1
 355 0 l 1,19,-1
 131 0 l 1,20,-1
 131 1539 l 1,21,-1
 355 1560 l 1,22,-1
 355 1158 l 1,23,-1
 349 890 l 1,0,1
EndSplineSet
EndChar

StartChar: i
Encoding: 105 105 76
Width: 596
GlyphClass: 2
Flags: W
LayerCount: 2
Fore
SplineSet
193 0 m 1,0,-1
 193 1082 l 1,1,-1
 413 1082 l 1,2,-1
 413 0 l 1,3,-1
 193 0 l 1,0,-1
303 1248 m 128,-1,5
 240 1248 240 1248 205.5 1284.5 c 128,-1,6
 171 1321 171 1321 171 1391 c 128,-1,7
 171 1461 171 1461 205.5 1498.5 c 128,-1,8
 240 1536 240 1536 303 1536 c 128,-1,9
 366 1536 366 1536 400 1498.5 c 128,-1,10
 434 1461 434 1461 434 1391 c 0,11,12
 434 1322 434 1322 400 1285 c 128,-1,4
 366 1248 366 1248 303 1248 c 128,-1,5
EndSplineSet
EndChar

StartChar: j
Encoding: 106 106 77
Width: 653
GlyphClass: 2
Flags: W
LayerCount: 2
Fore
SplineSet
42 -441 m 1,0,-1
 -25 -277 l 1,1,-1
 53 -248 l 2,2,3
 170 -205 170 -205 199.5 -161 c 128,-1,4
 229 -117 229 -117 229 11 c 2,5,-1
 229 1082 l 1,6,-1
 449 1082 l 1,7,-1
 449 17 l 2,8,9
 449 -30 449 -30 447.5 -67 c 128,-1,10
 446 -104 446 -104 440 -137 c 128,-1,11
 434 -170 434 -170 428 -194 c 128,-1,12
 422 -218 422 -218 408 -241 c 128,-1,13
 394 -264 394 -264 382.5 -279.5 c 128,-1,14
 371 -295 371 -295 346.5 -312 c 128,-1,15
 322 -329 322 -329 303 -339.5 c 128,-1,16
 284 -350 284 -350 248 -365.5 c 128,-1,17
 212 -381 212 -381 183 -391.5 c 128,-1,18
 154 -402 154 -402 105 -419 c 2,19,-1
 42 -441 l 1,0,-1
351 1248 m 128,-1,21
 288 1248 288 1248 253.5 1284.5 c 128,-1,22
 219 1321 219 1321 219 1391 c 128,-1,23
 219 1461 219 1461 253.5 1498.5 c 128,-1,24
 288 1536 288 1536 351 1536 c 128,-1,25
 414 1536 414 1536 448 1498.5 c 128,-1,26
 482 1461 482 1461 482 1391 c 0,27,28
 482 1322 482 1322 448 1285 c 128,-1,20
 414 1248 414 1248 351 1248 c 128,-1,21
EndSplineSet
EndChar

StartChar: k
Encoding: 107 107 78
Width: 1079
GlyphClass: 2
Flags: W
LayerCount: 2
Fore
SplineSet
131 0 m 1,0,-1
 131 1539 l 1,1,-1
 353 1560 l 1,2,-1
 353 800 l 1,3,-1
 347 586 l 1,4,-1
 789 1082 l 1,5,-1
 1047 1082 l 1,6,-1
 1047 1060 l 1,7,-1
 628 595 l 1,8,-1
 1071 29 l 1,9,-1
 1071 0 l 1,10,-1
 826 0 l 1,11,-1
 464 488 l 1,12,-1
 353 384 l 1,13,-1
 353 0 l 1,14,-1
 131 0 l 1,0,-1
EndSplineSet
EndChar

StartChar: l
Encoding: 108 108 79
Width: 681
GlyphClass: 2
Flags: W
LayerCount: 2
Fore
SplineSet
546 -6 m 2,0,1
 443 -6 443 -6 377 8 c 128,-1,2
 311 22 311 22 263.5 60 c 128,-1,3
 216 98 216 98 195.5 164 c 128,-1,4
 175 230 175 230 175 334 c 2,5,-1
 175 1539 l 1,6,-1
 397 1560 l 1,7,-1
 397 316 l 2,8,9
 397 239 397 239 428 209.5 c 128,-1,10
 459 180 459 180 544 171 c 2,11,-1
 621 163 l 1,12,-1
 608 -6 l 1,13,-1
 546 -6 l 2,0,1
EndSplineSet
EndChar

StartChar: m
Encoding: 109 109 80
Width: 1760
GlyphClass: 2
Flags: W
LayerCount: 2
Fore
SplineSet
118 0 m 1,0,-1
 118 1082 l 1,1,-1
 300 1082 l 1,2,-1
 324 892 l 1,3,4
 370 991 370 991 452 1046 c 128,-1,5
 534 1101 534 1101 643 1101 c 0,6,7
 756 1101 756 1101 832.5 1041 c 128,-1,8
 909 981 909 981 943 872 c 1,9,10
 996 988 996 988 1091.5 1044.5 c 128,-1,11
 1187 1101 1187 1101 1298 1101 c 0,12,13
 1470 1101 1470 1101 1556.5 997 c 128,-1,14
 1643 893 1643 893 1643 692 c 2,15,-1
 1643 0 l 1,16,-1
 1422 0 l 1,17,-1
 1422 617 l 2,18,19
 1422 676 1422 676 1418.5 719 c 128,-1,20
 1415 762 1415 762 1404.5 803.5 c 128,-1,21
 1394 845 1394 845 1376 870.5 c 128,-1,22
 1358 896 1358 896 1326.5 911.5 c 128,-1,23
 1295 927 1295 927 1252 927 c 0,24,25
 1145 927 1145 927 1068 826.5 c 128,-1,26
 991 726 991 726 991 573 c 2,27,-1
 991 0 l 1,28,-1
 770 0 l 1,29,-1
 770 619 l 2,30,31
 770 779 770 779 728.5 853 c 128,-1,32
 687 927 687 927 589 927 c 0,33,34
 476 927 476 927 407.5 829 c 128,-1,35
 339 731 339 731 339 572 c 2,36,-1
 339 0 l 1,37,-1
 118 0 l 1,0,-1
EndSplineSet
EndChar

StartChar: n
Encoding: 110 110 81
Width: 1164
GlyphClass: 2
Flags: W
LayerCount: 2
Fore
SplineSet
137 0 m 1,0,-1
 137 1082 l 1,1,-1
 322 1082 l 1,2,-1
 344 861 l 1,3,4
 423 1101 423 1101 682 1101 c 0,5,6
 853 1101 853 1101 949.5 986 c 128,-1,7
 1046 871 1046 871 1046 661 c 2,8,-1
 1046 0 l 1,9,-1
 822 0 l 1,10,-1
 822 643 l 2,11,12
 822 786 822 786 777 856.5 c 128,-1,13
 732 927 732 927 626 927 c 0,14,15
 494 927 494 927 427.5 832 c 128,-1,16
 361 737 361 737 361 572 c 2,17,-1
 361 0 l 1,18,-1
 137 0 l 1,0,-1
EndSplineSet
EndChar

StartChar: o
Encoding: 111 111 82
Width: 1164
GlyphClass: 2
Flags: W
LayerCount: 2
Fore
SplineSet
582 -18 m 128,-1,1
 351 -18 351 -18 218.5 134.5 c 128,-1,2
 86 287 86 287 86 543 c 128,-1,3
 86 799 86 799 218 950 c 128,-1,4
 350 1101 350 1101 582 1101 c 128,-1,5
 814 1101 814 1101 946 950 c 128,-1,6
 1078 799 1078 799 1078 543 c 128,-1,7
 1078 287 1078 287 945.5 134.5 c 128,-1,0
 813 -18 813 -18 582 -18 c 128,-1,1
582 156 m 128,-1,9
 718 156 718 156 785 256.5 c 128,-1,10
 852 357 852 357 852 543 c 0,11,12
 852 728 852 728 785 827.5 c 128,-1,13
 718 927 718 927 582 927 c 128,-1,14
 446 927 446 927 379 827.5 c 128,-1,15
 312 728 312 728 312 543 c 0,16,17
 312 357 312 357 379 256.5 c 128,-1,8
 446 156 446 156 582 156 c 128,-1,9
EndSplineSet
EndChar

StartChar: p
Encoding: 112 112 83
Width: 1192
GlyphClass: 2
Flags: W
LayerCount: 2
Fore
SplineSet
621 156 m 0,0,1
 863 156 863 156 863 545 c 0,2,3
 863 741 863 741 811 834 c 128,-1,4
 759 927 759 927 638 927 c 0,5,6
 504 927 504 927 426 835 c 128,-1,7
 348 743 348 743 348 562 c 2,8,-1
 348 280 l 1,9,10
 445 156 445 156 621 156 c 0,0,1
654 -18 m 0,11,12
 459 -18 459 -18 356 96 c 1,13,-1
 356 -468 l 1,14,-1
 131 -468 l 1,15,-1
 131 1082 l 1,16,-1
 316 1082 l 1,17,-1
 342 867 l 1,18,19
 383 980 383 980 468 1040.5 c 128,-1,20
 553 1101 553 1101 665 1101 c 0,21,22
 871 1101 871 1101 980 950 c 128,-1,23
 1089 799 1089 799 1089 546 c 0,24,25
 1089 289 1089 289 974 135.5 c 128,-1,26
 859 -18 859 -18 654 -18 c 0,11,12
EndSplineSet
EndChar

StartChar: q
Encoding: 113 113 84
Width: 1192
GlyphClass: 2
Flags: W
LayerCount: 2
Fore
SplineSet
579 156 m 0,0,1
 636 156 636 156 681.5 168.5 c 128,-1,2
 727 181 727 181 756 204.5 c 128,-1,3
 785 228 785 228 798 243 c 128,-1,4
 811 258 811 258 826 280 c 1,5,-1
 826 807 l 1,6,7
 792 861 792 861 728.5 894 c 128,-1,8
 665 927 665 927 583 927 c 0,9,10
 460 927 460 927 389.5 837.5 c 128,-1,11
 319 748 319 748 319 554 c 0,12,13
 319 359 319 359 385.5 257.5 c 128,-1,14
 452 156 452 156 579 156 c 0,0,1
554 1101 m 0,15,16
 658 1101 658 1101 727 1066 c 128,-1,17
 796 1031 796 1031 831 979 c 1,18,-1
 838 1082 l 1,19,-1
 1043 1082 l 1,20,-1
 1043 -468 l 1,21,-1
 819 -468 l 1,22,-1
 819 82 l 1,23,24
 725 -19 725 -19 550 -19 c 0,25,26
 346 -19 346 -19 219.5 127.5 c 128,-1,27
 93 274 93 274 93 554 c 0,28,29
 93 688 93 688 129 794 c 128,-1,30
 165 900 165 900 228 966 c 128,-1,31
 291 1032 291 1032 374 1066.5 c 128,-1,32
 457 1101 457 1101 554 1101 c 0,15,16
EndSplineSet
EndChar

StartChar: r
Encoding: 114 114 85
Width: 795
GlyphClass: 2
Flags: W
LayerCount: 2
Fore
SplineSet
156 0 m 1,0,-1
 156 1082 l 1,1,-1
 341 1082 l 1,2,-1
 366 849 l 1,3,4
 463 1089 463 1089 669 1089 c 0,5,6
 724 1089 724 1089 754 1083 c 1,7,-1
 743 914 l 1,8,-1
 709 914 l 2,9,10
 542 914 542 914 461 837 c 128,-1,11
 380 760 380 760 380 598 c 2,12,-1
 380 0 l 1,13,-1
 156 0 l 1,0,-1
EndSplineSet
EndChar

StartChar: s
Encoding: 115 115 86
Width: 994
GlyphClass: 2
Flags: W
LayerCount: 2
Fore
SplineSet
128 792 m 0,0,1
 128 874 128 874 157.5 935 c 128,-1,2
 187 996 187 996 240 1031.5 c 128,-1,3
 293 1067 293 1067 359.5 1084 c 128,-1,4
 426 1101 426 1101 506 1101 c 0,5,6
 635 1101 635 1101 738.5 1052 c 128,-1,7
 842 1003 842 1003 886 915 c 1,8,-1
 754 819 l 1,9,-1
 740 821 l 1,10,11
 673 927 673 927 529 927 c 0,12,13
 442 927 442 927 398.5 898 c 128,-1,14
 355 869 355 869 355 803 c 0,15,16
 355 757 355 757 393.5 727.5 c 128,-1,17
 432 698 432 698 546 658 c 0,18,19
 645 623 645 623 714.5 586.5 c 128,-1,20
 784 550 784 550 821 519.5 c 128,-1,21
 858 489 858 489 878 451 c 128,-1,22
 898 413 898 413 902.5 385.5 c 128,-1,23
 907 358 907 358 907 317 c 0,24,25
 907 149 907 149 799 65.5 c 128,-1,26
 691 -18 691 -18 509 -18 c 0,27,28
 371 -18 371 -18 255 36 c 128,-1,29
 139 90 139 90 86 193 c 1,30,-1
 224 297 l 1,31,-1
 241 297 l 1,32,33
 341 157 341 157 516 157 c 0,34,35
 696 157 696 157 696 299 c 0,36,37
 696 323 696 323 690 339 c 128,-1,38
 684 355 684 355 663.5 375.5 c 128,-1,39
 643 396 643 396 596.5 418 c 128,-1,40
 550 440 550 440 475 467 c 0,41,42
 337 516 337 516 260.5 566 c 128,-1,43
 184 616 184 616 156 668 c 128,-1,44
 128 720 128 720 128 792 c 0,0,1
EndSplineSet
EndChar

StartChar: t
Encoding: 116 116 87
Width: 823
GlyphClass: 2
Flags: W
LayerCount: 2
Fore
SplineSet
613 -6 m 2,0,1
 531 -6 531 -6 471.5 3 c 128,-1,2
 412 12 412 12 370.5 33 c 128,-1,3
 329 54 329 54 303 82 c 128,-1,4
 277 110 277 110 262.5 156 c 128,-1,5
 248 202 248 202 243 252 c 128,-1,6
 238 302 238 302 238 375 c 2,7,-1
 238 932 l 1,8,-1
 74 932 l 1,9,-1
 80 1070 l 1,10,-1
 250 1081 l 1,11,-1
 271 1382 l 1,12,-1
 462 1397 l 1,13,-1
 462 1082 l 1,14,-1
 764 1082 l 1,15,-1
 764 932 l 1,16,-1
 462 932 l 1,17,-1
 462 369 l 2,18,19
 462 320 462 320 463.5 292.5 c 128,-1,20
 465 265 465 265 474.5 240 c 128,-1,21
 484 215 484 215 496 204 c 128,-1,22
 508 193 508 193 536.5 184 c 128,-1,23
 565 175 565 175 596 171.5 c 128,-1,24
 627 168 627 168 684 165 c 2,25,-1
 750 161 l 1,26,-1
 741 -6 l 1,27,-1
 613 -6 l 2,0,1
EndSplineSet
EndChar

StartChar: u
Encoding: 117 117 88
Width: 1172
GlyphClass: 2
Flags: W
LayerCount: 2
Fore
SplineSet
1035 1082 m 1,0,-1
 1035 0 l 1,1,-1
 873 0 l 1,2,-1
 839 151 l 1,3,4
 793 79 793 79 708 30.5 c 128,-1,5
 623 -18 623 -18 507 -18 c 0,6,7
 323 -18 323 -18 223.5 89.5 c 128,-1,8
 124 197 124 197 124 409 c 2,9,-1
 124 1082 l 1,10,-1
 348 1082 l 1,11,-1
 348 418 l 2,12,13
 348 288 348 288 398.5 222 c 128,-1,14
 449 156 449 156 561 156 c 0,15,16
 701 156 701 156 811 276 c 1,17,-1
 811 1082 l 1,18,-1
 1035 1082 l 1,0,-1
EndSplineSet
EndChar

StartChar: v
Encoding: 118 118 89
Width: 1079
GlyphClass: 2
Flags: W
LayerCount: 2
Fore
SplineSet
429 0 m 1,0,-1
 42 1082 l 1,1,-1
 276 1082 l 1,2,-1
 476 485 l 1,3,-1
 545 245 l 1,4,5
 545 245 545 245 794 1082 c 1,6,-1
 1023 1082 l 1,7,-1
 653 0 l 1,8,-1
 429 0 l 1,0,-1
EndSplineSet
EndChar

StartChar: w
Encoding: 119 119 90
Width: 1476
GlyphClass: 2
Flags: W
LayerCount: 2
Fore
SplineSet
286 0 m 1,0,-1
 10 1082 l 1,1,-1
 215 1082 l 1,2,-1
 397 263 l 1,3,-1
 634 1082 l 1,4,-1
 855 1082 l 1,5,-1
 1083 266 l 1,6,-1
 1271 1082 l 1,7,-1
 1461 1082 l 1,8,-1
 1177 0 l 1,9,-1
 977 0 l 1,10,-1
 741 838 l 1,11,-1
 488 0 l 1,12,-1
 286 0 l 1,0,-1
EndSplineSet
EndChar

StartChar: x
Encoding: 120 120 91
Width: 1050
GlyphClass: 2
Flags: W
LayerCount: 2
Fore
SplineSet
766 0 m 1,0,-1
 510 393 l 1,1,-1
 278 0 l 1,2,-1
 42 0 l 1,3,-1
 401 561 l 1,4,-1
 62 1082 l 1,5,-1
 309 1082 l 1,6,-1
 552 709 l 1,7,-1
 766 1082 l 1,8,-1
 1004 1082 l 1,9,-1
 662 541 l 1,10,-1
 1015 0 l 1,11,-1
 766 0 l 1,0,-1
EndSplineSet
EndChar

StartChar: y
Encoding: 121 121 92
Width: 1136
GlyphClass: 2
Flags: W
LayerCount: 2
Fore
SplineSet
477 -453 m 1,0,-1
 275 -402 l 1,1,-1
 460 81 l 1,2,-1
 29 1082 l 1,3,-1
 263 1082 l 1,4,-1
 575 329 l 1,5,-1
 868 1082 l 1,6,-1
 1088 1082 l 1,7,-1
 477 -453 l 1,0,-1
EndSplineSet
EndChar

StartChar: z
Encoding: 122 122 93
Width: 994
GlyphClass: 2
Flags: W
LayerCount: 2
Fore
SplineSet
99 0 m 1,0,-1
 99 143 l 1,1,-1
 631 919 l 1,2,-1
 121 919 l 1,3,-1
 121 1082 l 1,4,-1
 876 1082 l 1,5,-1
 876 925 l 1,6,-1
 358 170 l 1,7,-1
 913 170 l 1,8,-1
 913 0 l 1,9,-1
 99 0 l 1,0,-1
EndSplineSet
EndChar

StartChar: braceleft
Encoding: 123 123 94
Width: 908
GlyphClass: 2
Flags: W
LayerCount: 2
Fore
SplineSet
779 -269 m 1,0,1
 581 -269 581 -269 489.5 -194 c 128,-1,2
 398 -119 398 -119 398 53 c 2,3,-1
 398 291 l 2,4,5
 398 357 398 357 390.5 398.5 c 128,-1,6
 383 440 383 440 361 473 c 128,-1,7
 339 506 339 506 297.5 520.5 c 128,-1,8
 256 535 256 535 190 535 c 1,9,-1
 190 724 l 1,10,11
 257 724 257 724 298.5 738.5 c 128,-1,12
 340 753 340 753 362 785.5 c 128,-1,13
 384 818 384 818 391 859 c 128,-1,14
 398 900 398 900 398 966 c 2,15,-1
 398 1233 l 2,16,17
 398 1395 398 1395 492.5 1466.5 c 128,-1,18
 587 1538 587 1538 779 1538 c 1,19,-1
 779 1358 l 1,20,21
 676 1357 676 1357 642 1316.5 c 128,-1,22
 608 1276 608 1276 608 1164 c 2,23,-1
 608 898 l 1,24,25
 607 792 607 792 565.5 729.5 c 128,-1,26
 524 667 524 667 428 627 c 1,27,28
 520 601 520 601 564 538.5 c 128,-1,29
 608 476 608 476 608 368 c 2,30,-1
 608 101 l 2,31,32
 608 -10 608 -10 641.5 -50.5 c 128,-1,33
 675 -91 675 -91 779 -92 c 1,34,-1
 779 -269 l 1,0,1
EndSplineSet
EndChar

StartChar: bar
Encoding: 124 124 95
Width: 711
GlyphClass: 2
Flags: W
LayerCount: 2
Fore
SplineSet
267 -317 m 1,0,-1
 267 1520 l 1,1,-1
 444 1520 l 1,2,-1
 444 -317 l 1,3,-1
 267 -317 l 1,0,-1
EndSplineSet
EndChar

StartChar: braceright
Encoding: 125 125 96
Width: 908
GlyphClass: 2
Flags: W
LayerCount: 2
Fore
SplineSet
114 -269 m 1,0,-1
 114 -92 l 1,1,2
 217 -91 217 -91 250.5 -51.5 c 128,-1,3
 284 -12 284 -12 284 101 c 2,4,-1
 284 368 l 2,5,6
 284 467 284 467 327 530 c 128,-1,7
 370 593 370 593 465 632 c 1,8,9
 286 695 286 695 284 899 c 1,10,-1
 284 1164 l 2,11,12
 284 1276 284 1276 250.5 1317 c 128,-1,13
 217 1358 217 1358 114 1359 c 1,14,-1
 114 1538 l 1,15,16
 311 1538 311 1538 402 1462.5 c 128,-1,17
 493 1387 493 1387 493 1212 c 2,18,-1
 493 967 l 2,19,20
 493 901 493 901 500.5 860.5 c 128,-1,21
 508 820 508 820 530 787.5 c 128,-1,22
 552 755 552 755 594 741 c 128,-1,23
 636 727 636 727 703 726 c 1,24,-1
 703 537 l 1,25,26
 638 537 638 537 596 522.5 c 128,-1,27
 554 508 554 508 531.5 475.5 c 128,-1,28
 509 443 509 443 501 400.5 c 128,-1,29
 493 358 493 358 493 293 c 2,30,-1
 493 31 l 2,31,32
 493 -130 493 -130 400.5 -199.5 c 128,-1,33
 308 -269 308 -269 114 -269 c 1,0,-1
EndSplineSet
EndChar

StartChar: asciitilde
Encoding: 126 126 97
Width: 1192
GlyphClass: 2
Flags: W
LayerCount: 2
Fore
SplineSet
162 480 m 1,0,-1
 93 609 l 1,1,2
 181 806 181 806 367 806 c 0,3,4
 465 806 465 806 613 740 c 0,5,6
 696 703 696 703 744.5 686 c 128,-1,7
 793 669 793 669 831 669 c 0,8,9
 941 669 941 669 1041 812 c 1,10,-1
 1110 691 l 1,11,12
 1070 603 1070 603 994 547.5 c 128,-1,13
 918 492 918 492 821 492 c 0,14,15
 764 492 764 492 709.5 509 c 128,-1,16
 655 526 655 526 579 561 c 0,17,18
 527 586 527 586 498 598 c 128,-1,19
 469 610 469 610 431 620 c 128,-1,20
 393 630 393 630 360 630 c 0,21,22
 299 630 299 630 247.5 588 c 128,-1,23
 196 546 196 546 162 480 c 1,0,-1
EndSplineSet
EndChar

StartChar: cent
Encoding: 162 162 100
Width: 1164
GlyphClass: 2
Flags: W
LayerCount: 2
Fore
SplineSet
541 -278 m 1,0,-1
 657 -278 l 1,1,-1
 686 -16 l 1,2,3
 746 -10 746 -10 797.5 7 c 128,-1,4
 849 24 849 24 884 45.5 c 128,-1,5
 919 67 919 67 950.5 98 c 128,-1,6
 982 129 982 129 1000.5 156 c 128,-1,7
 1019 183 1019 183 1038 216 c 1,8,-1
 913 303 l 1,9,-1
 899 303 l 1,10,11
 806 156 806 156 647 156 c 0,12,13
 496 156 496 156 417 256.5 c 128,-1,14
 338 357 338 357 338 541 c 128,-1,15
 338 725 338 725 417 826 c 128,-1,16
 496 927 496 927 647 927 c 0,17,18
 806 927 806 927 899 780 c 1,19,-1
 913 780 l 1,20,-1
 1038 867 l 1,21,22
 1023 893 1023 893 1008 915 c 128,-1,23
 993 937 993 937 971.5 962.5 c 128,-1,24
 950 988 950 988 924 1008.5 c 128,-1,25
 898 1029 898 1029 866 1047.5 c 128,-1,26
 834 1066 834 1066 793 1078.5 c 128,-1,27
 752 1091 752 1091 705 1097 c 1,28,-1
 705 1376 l 1,29,-1
 575 1376 l 1,30,-1
 544 1095 l 1,31,32
 347 1067 347 1067 229.5 920 c 128,-1,33
 112 773 112 773 112 541 c 0,34,35
 112 387 112 387 165.5 268 c 128,-1,36
 219 149 219 149 315 78.5 c 128,-1,37
 411 8 411 8 539 -11 c 1,38,-1
 541 -278 l 1,0,-1
EndSplineSet
EndChar

StartChar: sterling
Encoding: 163 163 101
Width: 1164
GlyphClass: 2
Flags: W
LayerCount: 2
Fore
SplineSet
92 10 m 1,0,-1
 81 183 l 1,1,-1
 256 203 l 1,2,-1
 256 674 l 1,3,-1
 76 674 l 1,4,-1
 76 840 l 1,5,-1
 256 840 l 1,6,-1
 256 945 l 2,7,8
 256 1043 256 1043 268 1123 c 128,-1,9
 280 1203 280 1203 310 1276.5 c 128,-1,10
 340 1350 340 1350 387.5 1399.5 c 128,-1,11
 435 1449 435 1449 509.5 1478.5 c 128,-1,12
 584 1508 584 1508 682 1508 c 0,13,14
 890 1508 890 1508 1045 1373 c 1,15,-1
 951 1223 l 1,16,17
 817 1322 817 1322 689 1322 c 0,18,19
 570 1322 570 1322 518 1244 c 128,-1,20
 466 1166 466 1166 466 1018 c 2,21,-1
 466 840 l 1,22,-1
 853 840 l 1,23,-1
 853 674 l 1,24,-1
 466 674 l 1,25,-1
 466 205 l 1,26,-1
 1061 205 l 1,27,-1
 1052 10 l 1,28,-1
 92 10 l 1,0,-1
EndSplineSet
EndChar

StartChar: currency
Encoding: 164 164 102
Width: 1136
GlyphClass: 2
Flags: W
LayerCount: 2
Fore
SplineSet
569 443 m 0,0,1
 690 443 690 443 769.5 527 c 128,-1,2
 849 611 849 611 849 733 c 0,3,4
 849 854 849 854 769 939.5 c 128,-1,5
 689 1025 689 1025 569 1025 c 0,6,7
 450 1025 450 1025 370.5 939.5 c 128,-1,8
 291 854 291 854 291 733 c 128,-1,9
 291 612 291 612 370.5 527.5 c 128,-1,10
 450 443 450 443 569 443 c 0,0,1
998 227 m 1,11,-1
 817 401 l 1,12,13
 708 314 708 314 569 314 c 0,14,15
 427 314 427 314 319 400 c 1,16,-1
 143 228 l 1,17,-1
 55 316 l 1,18,-1
 235 492 l 1,19,20
 161 601 161 601 161 733 c 0,21,22
 161 863 161 863 235 974 c 1,23,-1
 54 1152 l 1,24,-1
 143 1240 l 1,25,-1
 320 1067 l 1,26,27
 431 1154 431 1154 569 1154 c 0,28,29
 709 1154 709 1154 817 1066 c 1,30,-1
 998 1240 l 1,31,-1
 1082 1150 l 1,32,-1
 903 974 l 1,33,34
 977 862 977 862 977 733 c 0,35,36
 977 598 977 598 904 492 c 1,37,-1
 1081 317 l 1,38,-1
 998 227 l 1,11,-1
EndSplineSet
EndChar

StartChar: yen
Encoding: 165 165 103
Width: 1221
GlyphClass: 2
Flags: W
LayerCount: 2
Fore
SplineSet
731 255 m 1,0,-1
 731 0 l 1,1,-1
 491 0 l 1,2,-1
 491 255 l 1,3,-1
 167 255 l 1,4,-1
 167 406 l 1,5,-1
 491 406 l 1,6,-1
 491 539 l 1,7,-1
 482 555 l 1,8,-1
 168 555 l 1,9,-1
 168 699 l 1,10,-1
 404 699 l 1,11,-1
 -7 1456 l 1,12,-1
 240 1456 l 1,13,-1
 610 762 l 1,14,-1
 975 1456 l 1,15,-1
 1228 1456 l 1,16,-1
 817 699 l 1,17,-1
 1051 699 l 1,18,-1
 1051 555 l 1,19,-1
 739 555 l 1,20,-1
 731 540 l 1,21,-1
 731 406 l 1,22,-1
 1051 406 l 1,23,-1
 1051 255 l 1,24,-1
 731 255 l 1,0,-1
EndSplineSet
EndChar

StartChar: brokenbar
Encoding: 166 166 104
Width: 710
GlyphClass: 2
Flags: W
LayerCount: 2
Fore
SplineSet
260 788 m 1,0,-1
 260 1509 l 1,1,-1
 437 1509 l 1,2,-1
 437 788 l 1,3,-1
 260 788 l 1,0,-1
260 -303 m 1,4,-1
 260 420 l 1,5,-1
 437 420 l 1,6,-1
 437 -303 l 1,7,-1
 260 -303 l 1,4,-1
EndSplineSet
EndChar

StartChar: section
Encoding: 167 167 105
Width: 1050
GlyphClass: 2
Flags: W
LayerCount: 2
Fore
SplineSet
520 -20 m 0,0,1
 438 -20 438 -20 347 1.5 c 128,-1,2
 256 23 256 23 180 62 c 1,3,-1
 180 261 l 1,4,5
 365 157 365 157 515 157 c 0,6,7
 598 157 598 157 642.5 195 c 128,-1,8
 687 233 687 233 687 300 c 0,9,10
 687 348 687 348 654 381 c 128,-1,11
 621 414 621 414 524 447 c 2,12,-1
 418 484 l 2,13,14
 287 529 287 529 226 596 c 128,-1,15
 165 663 165 663 165 761 c 0,16,17
 165 885 165 885 271 971 c 1,18,19
 215 1013 215 1013 190.5 1069.5 c 128,-1,20
 166 1126 166 1126 166 1207 c 0,21,22
 166 1357 166 1357 270 1435 c 128,-1,23
 374 1513 374 1513 530 1513 c 0,24,25
 707 1513 707 1513 857 1424 c 1,26,-1
 797 1247 l 1,27,28
 671 1337 671 1337 535 1337 c 0,29,30
 461 1337 461 1337 414.5 1306 c 128,-1,31
 368 1275 368 1275 368 1220 c 0,32,33
 368 1169 368 1169 399.5 1139.5 c 128,-1,34
 431 1110 431 1110 526 1077 c 2,35,-1
 615 1046 l 2,36,37
 760 996 760 996 823 921.5 c 128,-1,38
 886 847 886 847 886 736 c 0,39,40
 886 620 886 620 797 534 c 1,41,42
 886 453 886 453 886 321 c 0,43,44
 886 203 886 203 835 124.5 c 128,-1,45
 784 46 784 46 704 13 c 128,-1,46
 624 -20 624 -20 520 -20 c 0,0,1
651 618 m 1,47,48
 687 654 687 654 687 715 c 0,49,50
 687 762 687 762 654 795.5 c 128,-1,51
 621 829 621 829 524 862 c 2,52,-1
 423 897 l 1,53,54
 368 866 368 866 368 805 c 0,55,56
 368 754 368 754 399.5 724.5 c 128,-1,57
 431 695 431 695 526 662 c 2,58,-1
 615 631 l 2,59,60
 633 625 633 625 651 618 c 1,47,48
EndSplineSet
EndChar

StartChar: dieresis
Encoding: 168 168 106
Width: 995
GlyphClass: 2
Flags: W
LayerCount: 2
Fore
SplineSet
724 1255 m 0,0,1
 663 1255 663 1255 624.5 1296 c 128,-1,2
 586 1337 586 1337 586 1394 c 0,3,4
 586 1452 586 1452 624.5 1493.5 c 128,-1,5
 663 1535 663 1535 724 1535 c 0,6,7
 784 1535 784 1535 822 1493.5 c 128,-1,8
 860 1452 860 1452 860 1394 c 0,9,10
 860 1337 860 1337 822 1296 c 128,-1,11
 784 1255 784 1255 724 1255 c 0,0,1
279 1255 m 0,12,13
 218 1255 218 1255 179.5 1296 c 128,-1,14
 141 1337 141 1337 141 1394 c 0,15,16
 141 1452 141 1452 179.5 1493.5 c 128,-1,17
 218 1535 218 1535 279 1535 c 0,18,19
 339 1535 339 1535 377 1493.5 c 128,-1,20
 415 1452 415 1452 415 1394 c 0,21,22
 415 1337 415 1337 377 1296 c 128,-1,23
 339 1255 339 1255 279 1255 c 0,12,13
EndSplineSet
EndChar

StartChar: copyright
Encoding: 169 169 107
Width: 1705
GlyphClass: 2
Flags: W
LayerCount: 2
Fore
SplineSet
849 -12 m 0,0,1
 699 -12 699 -12 561.5 42.5 c 128,-1,2
 424 97 424 97 318 195 c 128,-1,3
 212 293 212 293 149 441 c 128,-1,4
 86 589 86 589 86 764 c 0,5,6
 86 938 86 938 149 1085.5 c 128,-1,7
 212 1233 212 1233 317.5 1330 c 128,-1,8
 423 1427 423 1427 560.5 1481 c 128,-1,9
 698 1535 698 1535 848 1535 c 0,10,11
 999 1535 999 1535 1138 1481 c 128,-1,12
 1277 1427 1277 1427 1384 1329.5 c 128,-1,13
 1491 1232 1491 1232 1555 1085 c 128,-1,14
 1619 938 1619 938 1619 764 c 0,15,16
 1619 624 1619 624 1577.5 499.5 c 128,-1,17
 1536 375 1536 375 1463.5 283 c 128,-1,18
 1391 191 1391 191 1294 123.5 c 128,-1,19
 1197 56 1197 56 1083 22 c 128,-1,20
 969 -12 969 -12 849 -12 c 0,0,1
849 94 m 0,21,22
 982 94 982 94 1100.5 143 c 128,-1,23
 1219 192 1219 192 1307 278 c 128,-1,24
 1395 364 1395 364 1446.5 490 c 128,-1,25
 1498 616 1498 616 1498 763 c 0,26,27
 1498 958 1498 958 1409.5 1111 c 128,-1,28
 1321 1264 1321 1264 1173.5 1346 c 128,-1,29
 1026 1428 1026 1428 848 1428 c 0,30,31
 717 1428 717 1428 599 1380 c 128,-1,32
 481 1332 481 1332 393.5 1246.5 c 128,-1,33
 306 1161 306 1161 254.5 1035.5 c 128,-1,34
 203 910 203 910 203 764 c 0,35,36
 203 617 203 617 254.5 490.5 c 128,-1,37
 306 364 306 364 393.5 278 c 128,-1,38
 481 192 481 192 599 143 c 128,-1,39
 717 94 717 94 849 94 c 0,21,22
850 253 m 0,40,41
 651 253 651 253 516 395.5 c 128,-1,42
 381 538 381 538 381 757 c 0,43,44
 381 898 381 898 441.5 1014 c 128,-1,45
 502 1130 502 1130 608.5 1197 c 128,-1,46
 715 1264 715 1264 846 1264 c 0,47,48
 1019 1264 1019 1264 1144 1177 c 1,49,-1
 1092 1069 l 1,50,51
 986 1141 986 1141 854 1141 c 0,52,53
 710 1141 710 1141 618.5 1035.5 c 128,-1,54
 527 930 527 930 527 760 c 0,55,56
 527 585 527 585 619.5 480 c 128,-1,57
 712 375 712 375 860 375 c 0,58,59
 991 375 991 375 1100 444 c 1,60,-1
 1146 338 l 1,61,62
 1018 253 1018 253 850 253 c 0,40,41
EndSplineSet
EndChar

StartChar: guillemotleft
Encoding: 171 171 109
Width: 1022
GlyphClass: 2
Flags: W
LayerCount: 2
Fore
SplineSet
363 138 m 1,0,-1
 61 561 l 1,1,-1
 366 988 l 1,2,-1
 542 988 l 1,3,-1
 274 564 l 1,4,-1
 536 138 l 1,5,-1
 363 138 l 1,0,-1
757 138 m 1,6,-1
 455 561 l 1,7,-1
 759 988 l 1,8,-1
 935 988 l 1,9,-1
 668 564 l 1,10,-1
 930 138 l 1,11,-1
 757 138 l 1,6,-1
EndSplineSet
EndChar

StartChar: logicalnot
Encoding: 172 172 110
Width: 1221
GlyphClass: 2
Flags: W
LayerCount: 2
Fore
SplineSet
910 251 m 1,0,-1
 910 655 l 1,1,-1
 99 655 l 1,2,-1
 99 830 l 1,3,-1
 1080 830 l 1,4,-1
 1080 251 l 1,5,-1
 910 251 l 1,0,-1
EndSplineSet
EndChar

StartChar: uni00AD
Encoding: 173 173 111
Width: 965
GlyphClass: 2
Flags: W
LayerCount: 2
Fore
SplineSet
150 303 m 1,0,-1
 150 489 l 1,1,-1
 809 489 l 1,2,-1
 809 303 l 1,3,-1
 150 303 l 1,0,-1
EndSplineSet
EndChar

StartChar: registered
Encoding: 174 174 112
Width: 1875
GlyphClass: 2
Flags: W
LayerCount: 2
Fore
SplineSet
630 283 m 1,0,-1
 630 1250 l 1,1,-1
 950 1250 l 2,2,3
 1116 1250 1116 1250 1199 1188 c 128,-1,4
 1282 1126 1282 1126 1282 990 c 0,5,6
 1282 882 1282 882 1234.5 818 c 128,-1,7
 1187 754 1187 754 1084 733 c 1,8,9
 1102 709 1102 709 1161.5 596.5 c 128,-1,10
 1221 484 1221 484 1272 384 c 1,11,-1
 1322 283 l 1,12,-1
 1163 283 l 1,13,14
 967 689 967 689 944 713 c 1,15,-1
 773 713 l 1,16,-1
 773 283 l 1,17,-1
 630 283 l 1,0,-1
773 840 m 1,18,-1
 940 840 l 2,19,20
 1049 840 1049 840 1095 871 c 128,-1,21
 1141 902 1141 902 1141 986 c 0,22,23
 1141 1033 1141 1033 1129.5 1060.5 c 128,-1,24
 1118 1088 1118 1088 1088 1102 c 128,-1,25
 1058 1116 1058 1116 1021.5 1120 c 128,-1,26
 985 1124 985 1124 919 1124 c 2,27,-1
 773 1124 l 1,28,-1
 773 840 l 1,18,-1
936 89 m 0,29,30
 1068 89 1068 89 1186.5 138 c 128,-1,31
 1305 187 1305 187 1392.5 273 c 128,-1,32
 1480 359 1480 359 1531.5 485 c 128,-1,33
 1583 611 1583 611 1583 758 c 0,34,35
 1583 904 1583 904 1531.5 1030.5 c 128,-1,36
 1480 1157 1480 1157 1392.5 1243.5 c 128,-1,37
 1305 1330 1305 1330 1186 1379 c 128,-1,38
 1067 1428 1067 1428 935 1428 c 0,39,40
 804 1428 804 1428 686 1379 c 128,-1,41
 568 1330 568 1330 481 1243.5 c 128,-1,42
 394 1157 394 1157 343 1031 c 128,-1,43
 292 905 292 905 292 759 c 0,44,45
 292 612 292 612 343.5 485.5 c 128,-1,46
 395 359 395 359 482 273 c 128,-1,47
 569 187 569 187 687 138 c 128,-1,48
 805 89 805 89 936 89 c 0,29,30
936 -17 m 0,49,50
 786 -17 786 -17 648 37.5 c 128,-1,51
 510 92 510 92 403.5 190 c 128,-1,52
 297 288 297 288 233.5 436 c 128,-1,53
 170 584 170 584 170 759 c 0,54,55
 170 933 170 933 233.5 1081.5 c 128,-1,56
 297 1230 297 1230 403 1327.5 c 128,-1,57
 509 1425 509 1425 647 1480 c 128,-1,58
 785 1535 785 1535 935 1535 c 0,59,60
 1086 1535 1086 1535 1224.5 1480 c 128,-1,61
 1363 1425 1363 1425 1470 1327 c 128,-1,62
 1577 1229 1577 1229 1641 1081 c 128,-1,63
 1705 933 1705 933 1705 759 c 0,64,65
 1705 619 1705 619 1663.5 494.5 c 128,-1,66
 1622 370 1622 370 1549.5 278 c 128,-1,67
 1477 186 1477 186 1380 118.5 c 128,-1,68
 1283 51 1283 51 1169.5 17 c 128,-1,69
 1056 -17 1056 -17 936 -17 c 0,49,50
EndSplineSet
EndChar

StartChar: macron
Encoding: 175 175 113
Width: 965
GlyphClass: 2
Flags: W
LayerCount: 2
Fore
SplineSet
156 1310 m 1,0,-1
 156 1463 l 1,1,-1
 809 1463 l 1,2,-1
 809 1310 l 1,3,-1
 156 1310 l 1,0,-1
EndSplineSet
EndChar

StartChar: degree
Encoding: 176 176 114
Width: 853
GlyphClass: 2
Flags: W
LayerCount: 2
Fore
SplineSet
426 895 m 128,-1,1
 291 895 291 895 204.5 983 c 128,-1,2
 118 1071 118 1071 118 1199 c 0,3,4
 118 1325 118 1325 205 1410 c 128,-1,5
 292 1495 292 1495 426 1495 c 0,6,7
 561 1495 561 1495 648 1410 c 128,-1,8
 735 1325 735 1325 735 1199 c 128,-1,9
 735 1073 735 1073 648 984 c 128,-1,0
 561 895 561 895 426 895 c 128,-1,1
426 1022 m 128,-1,11
 496 1022 496 1022 544.5 1070.5 c 128,-1,12
 593 1119 593 1119 593 1198 c 0,13,14
 593 1275 593 1275 544.5 1322.5 c 128,-1,15
 496 1370 496 1370 427 1370 c 0,16,17
 357 1370 357 1370 308 1322.5 c 128,-1,18
 259 1275 259 1275 259 1198 c 0,19,20
 259 1119 259 1119 307.5 1070.5 c 128,-1,10
 356 1022 356 1022 426 1022 c 128,-1,11
EndSplineSet
EndChar

StartChar: plusminus
Encoding: 177 177 115
Width: 1136
GlyphClass: 2
Flags: W
LayerCount: 2
Fore
SplineSet
105 0 m 1,0,-1
 105 162 l 1,1,-1
 1039 162 l 1,2,-1
 1039 0 l 1,3,-1
 105 0 l 1,0,-1
482 243 m 1,4,-1
 482 625 l 1,5,-1
 114 625 l 1,6,-1
 114 802 l 1,7,-1
 482 802 l 1,8,-1
 482 1175 l 1,9,-1
 655 1175 l 1,10,-1
 655 802 l 1,11,-1
 1020 802 l 1,12,-1
 1020 625 l 1,13,-1
 655 625 l 1,14,-1
 655 243 l 1,15,-1
 482 243 l 1,4,-1
EndSplineSet
EndChar

StartChar: uni00B2
Encoding: 178 178 116
Width: 852
GlyphClass: 2
Flags: W
LayerCount: 2
Fore
SplineSet
152 600 m 1,0,-1
 152 735 l 1,1,2
 167 750 167 750 242.5 819.5 c 128,-1,3
 318 889 318 889 379 948 c 128,-1,4
 440 1007 440 1007 493.5 1080.5 c 128,-1,5
 547 1154 547 1154 547 1200 c 0,6,7
 547 1261 547 1261 508 1296 c 128,-1,8
 469 1331 469 1331 416 1331 c 0,9,10
 359 1331 359 1331 304.5 1305 c 128,-1,11
 250 1279 250 1279 214 1229 c 1,12,-1
 137 1336 l 1,13,14
 180 1405 180 1405 257 1442 c 128,-1,15
 334 1479 334 1479 427 1479 c 0,16,17
 542 1479 542 1479 626 1405.5 c 128,-1,18
 710 1332 710 1332 710 1207 c 0,19,20
 710 1142 710 1142 691.5 1087.5 c 128,-1,21
 673 1033 673 1033 623 973.5 c 128,-1,22
 573 914 573 914 538 880 c 128,-1,23
 503 846 503 846 418 771 c 0,24,25
 394 749 394 749 381 738 c 1,26,-1
 706 738 l 1,27,-1
 693 600 l 1,28,-1
 152 600 l 1,0,-1
EndSplineSet
EndChar

StartChar: uni00B3
Encoding: 179 179 117
Width: 852
GlyphClass: 2
Flags: W
LayerCount: 2
Fore
SplineSet
400 594 m 0,0,1
 332 594 332 594 262.5 616 c 128,-1,2
 193 638 193 638 144 679 c 1,3,-1
 198 802 l 1,4,5
 230 772 230 772 288.5 752 c 128,-1,6
 347 732 347 732 395 732 c 0,7,8
 458 732 458 732 494.5 765.5 c 128,-1,9
 531 799 531 799 531 866 c 0,10,11
 531 929 531 929 482 962.5 c 128,-1,12
 433 996 433 996 349 996 c 1,13,-1
 269 995 l 1,14,-1
 269 1134 l 1,15,-1
 349 1134 l 2,16,17
 506 1134 506 1134 506 1243 c 0,18,19
 506 1292 506 1292 477 1320.5 c 128,-1,20
 448 1349 448 1349 396 1349 c 0,21,22
 346 1349 346 1349 290 1330 c 128,-1,23
 234 1311 234 1311 203 1285 c 1,24,-1
 148 1394 l 1,25,26
 194 1438 194 1438 263 1462.5 c 128,-1,27
 332 1487 332 1487 404 1487 c 0,28,29
 515 1487 515 1487 590.5 1425 c 128,-1,30
 666 1363 666 1363 666 1244 c 1,31,32
 664 1116 664 1116 543 1072 c 1,33,34
 607 1046 607 1046 646 990.5 c 128,-1,35
 685 935 685 935 685 864 c 0,36,37
 685 738 685 738 603 666 c 128,-1,38
 521 594 521 594 400 594 c 0,0,1
EndSplineSet
EndChar

StartChar: acute
Encoding: 180 180 118
Width: 738
GlyphClass: 2
Flags: W
LayerCount: 2
Fore
SplineSet
318 1276 m 1,0,-1
 496 1687 l 1,1,-1
 765 1687 l 1,2,-1
 456 1276 l 1,3,-1
 318 1276 l 1,0,-1
EndSplineSet
EndChar

StartChar: paragraph
Encoding: 182 182 120
Width: 1164
GlyphClass: 2
Flags: W
LayerCount: 2
Fore
SplineSet
459 -120 m 1,0,-1
 459 791 l 1,1,2
 288 791 288 791 194 882 c 128,-1,3
 100 973 100 973 100 1118 c 0,4,5
 100 1282 100 1282 218.5 1369 c 128,-1,6
 337 1456 337 1456 563 1456 c 2,7,-1
 1009 1456 l 1,8,-1
 1009 1299 l 1,9,-1
 932 1299 l 1,10,-1
 932 -120 l 1,11,-1
 779 -120 l 1,12,-1
 779 1299 l 1,13,-1
 611 1299 l 1,14,-1
 611 -120 l 1,15,-1
 459 -120 l 1,0,-1
EndSplineSet
EndChar

StartChar: periodcentered
Encoding: 183 183 121
Width: 624
GlyphClass: 2
Flags: W
LayerCount: 2
Fore
SplineSet
226 558 m 1,0,-1
 226 758 l 1,1,-1
 394 758 l 1,2,-1
 394 558 l 1,3,-1
 226 558 l 1,0,-1
EndSplineSet
EndChar

StartChar: cedilla
Encoding: 184 184 122
Width: 710
GlyphClass: 2
Flags: W
LayerCount: 2
Fore
SplineSet
394 -287 m 0,0,1
 446 -287 446 -287 476.5 -264 c 128,-1,2
 507 -241 507 -241 507 -199 c 0,3,4
 507 -178 507 -178 495.5 -162.5 c 128,-1,5
 484 -147 484 -147 463 -139.5 c 128,-1,6
 442 -132 442 -132 413 -132 c 0,7,8
 399 -132 399 -132 383 -134 c 1,9,-1
 383 -60 l 1,10,11
 428 -43 428 -43 475 -43 c 0,12,13
 548 -43 548 -43 597.5 -83 c 128,-1,14
 647 -123 647 -123 647 -199 c 0,15,16
 647 -283 647 -283 577.5 -335 c 128,-1,17
 508 -387 508 -387 399 -387 c 0,18,19
 319 -387 319 -387 252 -356 c 1,20,-1
 282 -264 l 1,21,22
 343 -287 343 -287 394 -287 c 0,0,1
EndSplineSet
EndChar

StartChar: uni00B9
Encoding: 185 185 123
Width: 795
GlyphClass: 2
Flags: W
LayerCount: 2
Fore
SplineSet
185 598 m 1,0,-1
 185 709 l 1,1,-1
 339 709 l 1,2,-1
 339 1336 l 1,3,4
 297 1308 297 1308 175 1262 c 1,5,-1
 175 1376 l 1,6,7
 215 1390 215 1390 277 1421.5 c 128,-1,8
 339 1453 339 1453 367 1479 c 1,9,-1
 477 1479 l 1,10,-1
 477 709 l 1,11,-1
 616 709 l 1,12,-1
 616 598 l 1,13,-1
 185 598 l 1,0,-1
EndSplineSet
EndChar

StartChar: ordmasculine
Encoding: 186 186 124
Width: 965
GlyphClass: 2
Flags: W
LayerCount: 2
Fore
SplineSet
836 1114 m 0,0,1
 836 943 836 943 738.5 829 c 128,-1,2
 641 715 641 715 480 715 c 0,3,4
 312 715 312 715 218 827 c 128,-1,5
 124 939 124 939 124 1114 c 0,6,7
 124 1291 124 1291 218 1404 c 128,-1,8
 312 1517 312 1517 480 1517 c 0,9,10
 652 1517 652 1517 744 1405.5 c 128,-1,11
 836 1294 836 1294 836 1114 c 0,0,1
301 1114 m 0,12,13
 301 862 301 862 480 862 c 0,14,15
 666 862 666 862 666 1111 c 0,16,17
 666 1237 666 1237 618.5 1303.5 c 128,-1,18
 571 1370 571 1370 480 1370 c 0,19,20
 392 1370 392 1370 346.5 1305 c 128,-1,21
 301 1240 301 1240 301 1114 c 0,12,13
EndSplineSet
EndChar

StartChar: guillemotright
Encoding: 187 187 125
Width: 1022
GlyphClass: 2
Flags: W
LayerCount: 2
Fore
SplineSet
251 988 m 1,0,-1
 553 565 l 1,1,-1
 249 138 l 1,2,-1
 74 138 l 1,3,-1
 341 562 l 1,4,-1
 78 988 l 1,5,-1
 251 988 l 1,0,-1
637 988 m 1,6,-1
 940 565 l 1,7,-1
 634 138 l 1,8,-1
 461 138 l 1,9,-1
 726 562 l 1,10,-1
 466 988 l 1,11,-1
 637 988 l 1,6,-1
EndSplineSet
EndChar

StartChar: onequarter
Encoding: 188 188 126
Width: 1590
GlyphClass: 2
Flags: W
LayerCount: 2
Fore
SplineSet
1089 312 m 1,0,-1
 1306 312 l 1,1,-1
 1306 665 l 1,2,-1
 1089 312 l 1,0,-1
284 0 m 1,3,-1
 1242 1492 l 1,4,-1
 1418 1492 l 1,5,-1
 465 0 l 1,6,-1
 284 0 l 1,3,-1
1306 0 m 1,7,-1
 1306 184 l 1,8,-1
 922 184 l 1,9,-1
 922 309 l 1,10,-1
 1296 867 l 1,11,-1
 1458 867 l 1,12,-1
 1458 312 l 1,13,-1
 1571 312 l 1,14,-1
 1566 184 l 1,15,-1
 1458 184 l 1,16,-1
 1458 0 l 1,17,-1
 1306 0 l 1,7,-1
76 597 m 1,18,-1
 76 741 l 1,19,-1
 228 741 l 1,20,-1
 228 1312 l 1,21,22
 204 1299 204 1299 140.5 1271 c 128,-1,23
 77 1243 77 1243 62 1238 c 1,24,-1
 62 1383 l 1,25,26
 96 1398 96 1398 165 1436 c 128,-1,27
 234 1474 234 1474 258 1492 c 1,28,-1
 393 1492 l 1,29,-1
 393 741 l 1,30,-1
 530 741 l 1,31,-1
 530 597 l 1,32,-1
 76 597 l 1,18,-1
EndSplineSet
EndChar

StartChar: onehalf
Encoding: 189 189 127
Width: 1618
GlyphClass: 2
Flags: W
LayerCount: 2
Fore
SplineSet
1006 -20 m 1,0,-1
 1006 115 l 1,1,2
 1021 130 1021 130 1096.5 199.5 c 128,-1,3
 1172 269 1172 269 1233 328 c 128,-1,4
 1294 387 1294 387 1347.5 460.5 c 128,-1,5
 1401 534 1401 534 1401 580 c 0,6,7
 1401 641 1401 641 1362 676 c 128,-1,8
 1323 711 1323 711 1270 711 c 0,9,10
 1213 711 1213 711 1158.5 685 c 128,-1,11
 1104 659 1104 659 1068 609 c 1,12,-1
 991 716 l 1,13,14
 1034 785 1034 785 1111 822 c 128,-1,15
 1188 859 1188 859 1281 859 c 0,16,17
 1396 859 1396 859 1480 785.5 c 128,-1,18
 1564 712 1564 712 1564 587 c 0,19,20
 1564 522 1564 522 1545.5 467.5 c 128,-1,21
 1527 413 1527 413 1477 353.5 c 128,-1,22
 1427 294 1427 294 1392 260 c 128,-1,23
 1357 226 1357 226 1272 151 c 0,24,25
 1248 129 1248 129 1235 118 c 1,26,-1
 1560 118 l 1,27,-1
 1547 -20 l 1,28,-1
 1006 -20 l 1,0,-1
246 0 m 1,29,-1
 1204 1493 l 1,30,-1
 1380 1493 l 1,31,-1
 427 0 l 1,32,-1
 246 0 l 1,29,-1
38 597 m 1,33,-1
 38 741 l 1,34,-1
 180 741 l 1,35,-1
 180 1313 l 1,36,37
 154 1298 154 1298 95 1270 c 128,-1,38
 36 1242 36 1242 24 1238 c 1,39,-1
 24 1383 l 1,40,41
 62 1401 62 1401 129.5 1438 c 128,-1,42
 197 1475 197 1475 220 1493 c 1,43,-1
 355 1493 l 1,44,-1
 355 741 l 1,45,-1
 492 741 l 1,46,-1
 492 597 l 1,47,-1
 38 597 l 1,33,-1
EndSplineSet
EndChar

StartChar: threequarters
Encoding: 190 190 128
Width: 1590
GlyphClass: 2
Flags: W
LayerCount: 2
Fore
SplineSet
276 0 m 1,0,-1
 1234 1492 l 1,1,-1
 1410 1492 l 1,2,-1
 457 0 l 1,3,-1
 276 0 l 1,0,-1
68 597 m 1,4,-1
 68 741 l 1,5,-1
 210 741 l 1,6,-1
 210 1312 l 1,7,8
 184 1298 184 1298 125 1270 c 128,-1,9
 66 1242 66 1242 54 1238 c 1,10,-1
 54 1383 l 1,11,12
 88 1398 88 1398 157 1436 c 128,-1,13
 226 1474 226 1474 250 1492 c 1,14,-1
 385 1492 l 1,15,-1
 385 741 l 1,16,-1
 522 741 l 1,17,-1
 522 597 l 1,18,-1
 68 597 l 1,4,-1
1081 312 m 1,19,-1
 1298 312 l 1,20,-1
 1298 665 l 1,21,-1
 1081 312 l 1,19,-1
1298 0 m 1,22,-1
 1298 184 l 1,23,-1
 914 184 l 1,24,-1
 914 309 l 1,25,-1
 1288 867 l 1,26,-1
 1450 867 l 1,27,-1
 1450 312 l 1,28,-1
 1563 312 l 1,29,-1
 1558 184 l 1,30,-1
 1450 184 l 1,31,-1
 1450 0 l 1,32,-1
 1298 0 l 1,22,-1
EndSplineSet
EndChar

StartChar: AE
Encoding: 198 198 136
Width: 1647
GlyphClass: 2
Flags: W
LayerCount: 2
Fore
SplineSet
736 0 m 1,0,-1
 736 433 l 1,1,-1
 397 433 l 1,2,-1
 217 0 l 1,3,-1
 -19 0 l 1,4,-1
 604 1492 l 1,5,-1
 1589 1492 l 1,6,-1
 1579 1302 l 1,7,-1
 976 1302 l 1,8,-1
 976 873 l 1,9,-1
 1536 873 l 1,10,-1
 1536 682 l 1,11,-1
 976 682 l 1,12,-1
 976 195 l 1,13,-1
 1606 195 l 1,14,-1
 1598 0 l 1,15,-1
 736 0 l 1,0,-1
736 607 m 1,16,-1
 736 1290 l 1,17,-1
 465 607 l 1,18,-1
 736 607 l 1,16,-1
EndSplineSet
EndChar

StartChar: multiply
Encoding: 215 215 153
Width: 994
GlyphClass: 2
Flags: W
LayerCount: 2
Fore
SplineSet
777 168 m 1,0,-1
 498 461 l 1,1,-1
 217 167 l 1,2,-1
 99 294 l 1,3,-1
 376 589 l 1,4,-1
 103 883 l 1,5,-1
 221 1008 l 1,6,-1
 498 716 l 1,7,-1
 772 1006 l 1,8,-1
 893 881 l 1,9,-1
 619 589 l 1,10,11
 619 589 619 589 895 296 c 1,12,-1
 777 168 l 1,0,-1
EndSplineSet
EndChar

StartChar: Oslash
Encoding: 216 216 154
Width: 1533
GlyphClass: 2
Flags: W
LayerCount: 2
Fore
SplineSet
530 257 m 1,0,-1
 908 1257 l 1,1,2
 847 1276 847 1276 772 1276 c 0,3,4
 563 1276 563 1276 462.5 1131 c 128,-1,5
 362 986 362 986 362 724 c 0,6,7
 362 383 362 383 530 257 c 1,0,-1
771 186 m 0,8,9
 1177 186 1177 186 1177 724 c 0,10,11
 1177 1059 1177 1059 1025 1192 c 1,12,-1
 646 201 l 1,13,14
 703 186 703 186 771 186 c 0,8,9
464 -273 m 1,15,-1
 345 -230 l 1,16,-1
 450 47 l 1,17,18
 282 128 282 128 195 301 c 128,-1,19
 108 474 108 474 108 725 c 0,20,21
 108 1085 108 1085 279.5 1282.5 c 128,-1,22
 451 1480 451 1480 772 1480 c 0,23,24
 886 1480 886 1480 983 1453 c 1,25,-1
 1085 1724 l 1,26,-1
 1210 1676 l 1,27,-1
 1106 1405 l 1,28,29
 1265 1320 1265 1320 1348 1146 c 128,-1,30
 1431 972 1431 972 1431 724 c 0,31,32
 1431 371 1431 371 1262.5 176.5 c 128,-1,33
 1094 -18 1094 -18 772 -18 c 0,34,35
 663 -18 663 -18 570 5 c 1,36,-1
 464 -273 l 1,15,-1
EndSplineSet
EndChar

StartChar: Thorn
Encoding: 222 222 160
Width: 1249
GlyphClass: 2
Flags: W
LayerCount: 2
Fore
SplineSet
165 0 m 1,0,-1
 165 1492 l 1,1,-1
 405 1492 l 1,2,-1
 405 1188 l 1,3,-1
 601 1188 l 2,4,5
 719 1188 719 1188 808 1170.5 c 128,-1,6
 897 1153 897 1153 965.5 1112.5 c 128,-1,7
 1034 1072 1034 1072 1069.5 1000.5 c 128,-1,8
 1105 929 1105 929 1105 828 c 0,9,10
 1105 732 1105 732 1080 661.5 c 128,-1,11
 1055 591 1055 591 998 538 c 128,-1,12
 941 485 941 485 841.5 458 c 128,-1,13
 742 431 742 431 600 431 c 2,14,-1
 405 431 l 1,15,-1
 405 0 l 1,16,-1
 165 0 l 1,0,-1
405 1016 m 1,17,-1
 405 610 l 1,18,-1
 593 610 l 2,19,20
 677 610 677 610 728.5 622 c 128,-1,21
 780 634 780 634 807 662.5 c 128,-1,22
 834 691 834 691 843 727 c 128,-1,23
 852 763 852 763 852 823 c 0,24,25
 852 928 852 928 797.5 972 c 128,-1,26
 743 1016 743 1016 611 1016 c 2,27,-1
 405 1016 l 1,17,-1
EndSplineSet
EndChar

StartChar: germandbls
Encoding: 223 223 161
Width: 1249
GlyphClass: 2
Flags: W
LayerCount: 2
Fore
SplineSet
360 0 m 1,0,-1
 137 0 l 1,1,-1
 137 1040 l 2,2,3
 137 1266 137 1266 249.5 1390 c 128,-1,4
 362 1514 362 1514 583 1514 c 0,5,6
 763 1514 763 1514 877.5 1427.5 c 128,-1,7
 992 1341 992 1341 992 1183 c 0,8,9
 992 1117 992 1117 972.5 1059.5 c 128,-1,10
 953 1002 953 1002 924.5 964.5 c 128,-1,11
 896 927 896 927 868 896.5 c 128,-1,12
 840 866 840 866 820.5 839 c 128,-1,13
 801 812 801 812 801 790 c 128,-1,14
 801 768 801 768 821 746 c 128,-1,15
 841 724 841 724 873.5 702 c 128,-1,16
 906 680 906 680 945 654.5 c 128,-1,17
 984 629 984 629 1023.5 595.5 c 128,-1,18
 1063 562 1063 562 1095.5 523 c 128,-1,19
 1128 484 1128 484 1148 429 c 128,-1,20
 1168 374 1168 374 1168 311 c 0,21,22
 1168 156 1168 156 1075.5 68 c 128,-1,23
 983 -20 983 -20 821 -20 c 0,24,25
 655 -20 655 -20 486 54 c 1,26,-1
 541 218 l 1,27,28
 584 196 584 196 650.5 178 c 128,-1,29
 717 160 717 160 781 160 c 0,30,31
 858 160 858 160 900.5 199.5 c 128,-1,32
 943 239 943 239 943 314 c 0,33,34
 943 369 943 369 906 418 c 128,-1,35
 869 467 869 467 816.5 504.5 c 128,-1,36
 764 542 764 542 711.5 579.5 c 128,-1,37
 659 617 659 617 622 665 c 128,-1,38
 585 713 585 713 585 767 c 0,39,40
 585 814 585 814 605.5 856.5 c 128,-1,41
 626 899 626 899 656 933 c 128,-1,42
 686 967 686 967 715.5 1001.5 c 128,-1,43
 745 1036 745 1036 765.5 1081.5 c 128,-1,44
 786 1127 786 1127 786 1178 c 0,45,46
 786 1252 786 1252 734.5 1296.5 c 128,-1,47
 683 1341 683 1341 593 1341 c 0,48,49
 466 1341 466 1341 413 1268.5 c 128,-1,50
 360 1196 360 1196 360 1039 c 2,51,-1
 360 0 l 1,0,-1
EndSplineSet
EndChar

StartChar: ae
Encoding: 230 230 168
Width: 1590
GlyphClass: 2
Flags: W
LayerCount: 2
Fore
SplineSet
899 627 m 1,0,1
 1082 627 1082 627 1188 644.5 c 128,-1,2
 1294 662 1294 662 1338 697.5 c 128,-1,3
 1382 733 1382 733 1382 792 c 0,4,5
 1382 871 1382 871 1337.5 907.5 c 128,-1,6
 1293 944 1293 944 1199 944 c 0,7,8
 1143 944 1143 944 1095.5 929 c 128,-1,9
 1048 914 1048 914 1005.5 879.5 c 128,-1,10
 963 845 963 845 935 780.5 c 128,-1,11
 907 716 907 716 899 627 c 1,0,1
396 145 m 0,12,13
 476 145 476 145 570 182.5 c 128,-1,14
 664 220 664 220 728 278 c 1,15,16
 690 373 690 373 686 476 c 1,17,-1
 545 476 l 2,18,19
 376 476 376 476 309 437.5 c 128,-1,20
 242 399 242 399 242 312 c 0,21,22
 242 145 242 145 396 145 c 0,12,13
365 -20 m 0,23,24
 218 -20 218 -20 126.5 73 c 128,-1,25
 35 166 35 166 35 320 c 0,26,27
 35 392 35 392 58 445 c 128,-1,28
 81 498 81 498 123 532.5 c 128,-1,29
 165 567 165 567 230.5 588.5 c 128,-1,30
 296 610 296 610 373.5 618.5 c 128,-1,31
 451 627 451 627 552 627 c 2,32,-1
 682 627 l 1,33,-1
 682 714 l 2,34,35
 682 925 682 925 432 925 c 0,36,37
 279 925 279 925 133 857 c 1,38,-1
 84 1020 l 1,39,40
 250 1101 250 1101 455 1101 c 0,41,42
 581 1101 581 1101 678 1048 c 128,-1,43
 775 995 775 995 819 900 c 1,44,45
 864 990 864 990 965 1045.5 c 128,-1,46
 1066 1101 1066 1101 1182 1101 c 0,47,48
 1285 1101 1285 1101 1360.5 1075 c 128,-1,49
 1436 1049 1436 1049 1478 1003 c 128,-1,50
 1520 957 1520 957 1539 902.5 c 128,-1,51
 1558 848 1558 848 1558 783 c 0,52,53
 1558 712 1558 712 1529.5 660 c 128,-1,54
 1501 608 1501 608 1430 565.5 c 128,-1,55
 1359 523 1359 523 1226 501.5 c 128,-1,56
 1093 480 1093 480 897 480 c 1,57,58
 911 157 911 157 1225 155 c 0,59,60
 1368 155 1368 155 1496 223 c 1,61,-1
 1530 66 l 1,62,63
 1405 -18 1405 -18 1221 -18 c 0,64,65
 1089 -18 1089 -18 980 25.5 c 128,-1,66
 871 69 871 69 813 148 c 1,67,68
 744 77 744 77 619 28.5 c 128,-1,69
 494 -20 494 -20 365 -20 c 0,23,24
EndSplineSet
EndChar

StartChar: eth
Encoding: 240 240 178
Width: 1192
GlyphClass: 2
Flags: W
LayerCount: 2
Fore
SplineSet
602 156 m 128,-1,1
 748 156 748 156 827.5 244.5 c 128,-1,2
 907 333 907 333 907 484 c 0,3,4
 907 620 907 620 824 710 c 128,-1,5
 741 800 741 800 596 800 c 0,6,7
 453 800 453 800 373 713.5 c 128,-1,8
 293 627 293 627 293 483 c 0,9,10
 293 343 293 343 374.5 249.5 c 128,-1,0
 456 156 456 156 602 156 c 128,-1,1
596 -22 m 0,11,12
 362 -22 362 -22 221 121.5 c 128,-1,13
 80 265 80 265 80 482 c 0,14,15
 80 697 80 697 214 829.5 c 128,-1,16
 348 962 348 962 563 962 c 0,17,18
 654 962 654 962 761 903 c 1,19,20
 725 959 725 959 655.5 1042 c 128,-1,21
 586 1125 586 1125 513 1198 c 1,22,-1
 265 1099 l 1,23,-1
 207 1252 l 1,24,-1
 401 1331 l 1,25,-1
 193 1536 l 1,26,-1
 452 1536 l 1,27,-1
 580 1407 l 1,28,-1
 855 1518 l 1,29,-1
 915 1364 l 1,30,-1
 691 1275 l 1,31,32
 817 1134 817 1134 890 1041.5 c 128,-1,33
 963 949 963 949 1013 859 c 0,34,35
 1107 690 1107 690 1108 478 c 1,36,37
 1108 249 1108 249 972.5 113.5 c 128,-1,38
 837 -22 837 -22 596 -22 c 0,11,12
EndSplineSet
EndChar

StartChar: divide
Encoding: 247 247 185
Width: 1221
GlyphClass: 2
Flags: W
LayerCount: 2
Fore
SplineSet
482 888 m 1,0,-1
 482 1132 l 1,1,-1
 731 1132 l 1,2,-1
 731 888 l 1,3,-1
 482 888 l 1,0,-1
93 498 m 1,4,-1
 93 675 l 1,5,-1
 1113 675 l 1,6,-1
 1113 498 l 1,7,-1
 93 498 l 1,4,-1
482 25 m 1,8,-1
 482 278 l 1,9,-1
 725 278 l 1,10,-1
 725 25 l 1,11,-1
 482 25 l 1,8,-1
EndSplineSet
EndChar

StartChar: oslash
Encoding: 248 248 186
Width: 1164
GlyphClass: 2
Flags: W
LayerCount: 2
Fore
SplineSet
253 -180 m 1,0,-1
 182 -135 l 1,1,-1
 910 1240 l 1,2,-1
 987 1195 l 1,3,-1
 253 -180 l 1,0,-1
582 -18 m 128,-1,5
 351 -18 351 -18 218.5 134.5 c 128,-1,6
 86 287 86 287 86 543 c 128,-1,7
 86 799 86 799 218 950 c 128,-1,8
 350 1101 350 1101 582 1101 c 128,-1,9
 814 1101 814 1101 946 950 c 128,-1,10
 1078 799 1078 799 1078 543 c 128,-1,11
 1078 287 1078 287 945.5 134.5 c 128,-1,4
 813 -18 813 -18 582 -18 c 128,-1,5
582 156 m 128,-1,13
 718 156 718 156 785 256.5 c 128,-1,14
 852 357 852 357 852 543 c 0,15,16
 852 728 852 728 785 827.5 c 128,-1,17
 718 927 718 927 582 927 c 128,-1,18
 446 927 446 927 379 827.5 c 128,-1,19
 312 728 312 728 312 543 c 0,20,21
 312 357 312 357 379 256.5 c 128,-1,12
 446 156 446 156 582 156 c 128,-1,13
EndSplineSet
EndChar

StartChar: thorn
Encoding: 254 254 192
Width: 1164
GlyphClass: 2
Flags: W
LayerCount: 2
Fore
SplineSet
532 156 m 0,0,1
 477 156 477 156 431 167 c 128,-1,2
 385 178 385 178 352.5 197.5 c 128,-1,3
 320 217 320 217 299 236 c 128,-1,4
 278 255 278 255 259 280 c 1,5,-1
 259 562 l 2,6,7
 259 743 259 743 337 835 c 128,-1,8
 415 927 415 927 549 927 c 0,9,10
 670 927 670 927 722 834 c 128,-1,11
 774 741 774 741 774 545 c 0,12,13
 774 156 774 156 532 156 c 0,0,1
565 -18 m 0,14,15
 667 -18 667 -18 749.5 23 c 128,-1,16
 832 64 832 64 886.5 138 c 128,-1,17
 941 212 941 212 970.5 316 c 128,-1,18
 1000 420 1000 420 1000 546 c 0,19,20
 1000 712 1000 712 953.5 835.5 c 128,-1,21
 907 959 907 959 810.5 1030 c 128,-1,22
 714 1101 714 1101 576 1101 c 0,23,24
 473 1101 473 1101 392.5 1049.5 c 128,-1,25
 312 998 312 998 267 901 c 1,26,-1
 267 1522 l 1,27,-1
 42 1502 l 1,28,-1
 42 -468 l 1,29,-1
 267 -468 l 1,30,-1
 267 96 l 1,31,32
 314 44 314 44 389.5 13 c 128,-1,33
 465 -18 465 -18 565 -18 c 0,14,15
EndSplineSet
EndChar

StartChar: dotlessi
Encoding: 305 305 194
Width: 596
GlyphClass: 2
Flags: W
LayerCount: 2
Fore
SplineSet
193 0 m 1,0,-1
 193 1082 l 1,1,-1
 413 1082 l 1,2,-1
 413 0 l 1,3,-1
 193 0 l 1,0,-1
EndSplineSet
EndChar

StartChar: OE
Encoding: 338 338 195
Width: 2068
GlyphClass: 2
Flags: W
LayerCount: 2
Fore
SplineSet
1930 195 m 1,0,-1
 1922 0 l 1,1,-1
 812 0 l 2,2,3
 482 0 482 0 295 189 c 128,-1,4
 108 378 108 378 108 725 c 0,5,6
 108 1077 108 1077 296 1266.5 c 128,-1,7
 484 1456 484 1456 812 1456 c 2,8,-1
 1913 1456 l 1,9,-1
 1900 1266 l 1,10,-1
 1247 1266 l 1,11,-1
 1247 845 l 1,12,-1
 1860 845 l 1,13,-1
 1860 654 l 1,14,-1
 1247 654 l 1,15,-1
 1247 195 l 1,16,-1
 1930 195 l 1,0,-1
811 195 m 2,17,-1
 1007 195 l 1,18,-1
 1007 1266 l 1,19,-1
 812 1266 l 2,20,21
 598 1266 598 1266 480 1122 c 128,-1,22
 362 978 362 978 362 724 c 0,23,24
 362 476 362 476 478.5 335.5 c 128,-1,25
 595 195 595 195 811 195 c 2,17,-1
EndSplineSet
EndChar

StartChar: circumflex
Encoding: 710 710 198
Width: 937
GlyphClass: 2
Flags: W
LayerCount: 2
Fore
SplineSet
147 1276 m 1,0,-1
 369 1591 l 1,1,-1
 571 1591 l 1,2,-1
 789 1276 l 1,3,-1
 627 1276 l 1,4,-1
 463 1438 l 1,5,-1
 307 1276 l 1,6,-1
 147 1276 l 1,0,-1
EndSplineSet
EndChar

StartChar: ring
Encoding: 730 730 199
Width: 795
GlyphClass: 2
Flags: W
LayerCount: 2
Fore
SplineSet
396 1353 m 0,0,1
 438 1353 438 1353 464.5 1383.5 c 128,-1,2
 491 1414 491 1414 491 1457 c 0,3,4
 491 1499 491 1499 464.5 1530 c 128,-1,5
 438 1561 438 1561 396 1561 c 0,6,7
 355 1561 355 1561 329 1530 c 128,-1,8
 303 1499 303 1499 303 1457 c 0,9,10
 303 1412 303 1412 328 1382.5 c 128,-1,11
 353 1353 353 1353 396 1353 c 0,0,1
396 1256 m 128,-1,13
 305 1256 305 1256 247.5 1315 c 128,-1,14
 190 1374 190 1374 190 1458 c 128,-1,15
 190 1542 190 1542 247 1600.5 c 128,-1,16
 304 1659 304 1659 396 1659 c 0,17,18
 489 1659 489 1659 546 1600.5 c 128,-1,19
 603 1542 603 1542 603 1458 c 128,-1,20
 603 1374 603 1374 545 1315 c 128,-1,12
 487 1256 487 1256 396 1256 c 128,-1,13
EndSplineSet
EndChar

StartChar: tilde
Encoding: 732 732 200
Width: 937
GlyphClass: 2
Flags: W
LayerCount: 2
Fore
SplineSet
273 1256 m 1,0,-1
 159 1256 l 1,1,2
 159 1361 159 1361 205.5 1428 c 128,-1,3
 252 1495 252 1495 345 1495 c 0,4,5
 400 1495 400 1495 457.5 1473.5 c 128,-1,6
 515 1452 515 1452 559 1431 c 128,-1,7
 603 1410 603 1410 626 1410 c 128,-1,8
 649 1410 649 1410 663.5 1429 c 128,-1,9
 678 1448 678 1448 687 1494 c 1,10,-1
 802 1494 l 1,11,12
 802 1392 802 1392 758.5 1324 c 128,-1,13
 715 1256 715 1256 631 1256 c 0,14,15
 584 1256 584 1256 527.5 1281 c 128,-1,16
 471 1306 471 1306 422 1330.5 c 128,-1,17
 373 1355 373 1355 345 1355 c 0,18,19
 291 1355 291 1355 273 1256 c 1,0,-1
EndSplineSet
EndChar

StartChar: uni2010
Encoding: 8208 8208 212
Width: 908
GlyphClass: 2
Flags: W
LayerCount: 2
Fore
SplineSet
163 467 m 1,0,-1
 163 652 l 1,1,-1
 744 652 l 1,2,-1
 744 467 l 1,3,-1
 163 467 l 1,0,-1
EndSplineSet
EndChar

StartChar: uni2011
Encoding: 8209 8209 213
Width: 908
GlyphClass: 2
Flags: W
LayerCount: 2
Fore
SplineSet
163 467 m 1,0,-1
 163 652 l 1,1,-1
 744 652 l 1,2,-1
 744 467 l 1,3,-1
 163 467 l 1,0,-1
EndSplineSet
EndChar

StartChar: figuredash
Encoding: 8210 8210 214
Width: 908
GlyphClass: 2
Flags: W
LayerCount: 2
Fore
SplineSet
163 467 m 1,0,-1
 163 652 l 1,1,-1
 744 652 l 1,2,-1
 744 467 l 1,3,-1
 163 467 l 1,0,-1
EndSplineSet
EndChar

StartChar: endash
Encoding: 8211 8211 215
Width: 1249
GlyphClass: 2
Flags: W
LayerCount: 2
Fore
SplineSet
93 484 m 1,0,-1
 93 659 l 1,1,-1
 1138 659 l 1,2,-1
 1138 484 l 1,3,-1
 93 484 l 1,0,-1
EndSplineSet
EndChar

StartChar: emdash
Encoding: 8212 8212 216
Width: 1931
GlyphClass: 2
Flags: W
LayerCount: 2
Fore
SplineSet
-59 484 m 1,0,-1
 -59 659 l 1,1,-1
 2002 659 l 1,2,-1
 2002 484 l 1,3,-1
 -59 484 l 1,0,-1
EndSplineSet
EndChar

StartChar: quoteleft
Encoding: 8216 8216 217
Width: 738
GlyphClass: 2
Flags: W
LayerCount: 2
Fore
SplineSet
531 960 m 1,0,-1
 377 960 l 1,1,-1
 252 1471 l 1,2,-1
 458 1471 l 1,3,-1
 531 960 l 1,0,-1
EndSplineSet
EndChar

StartChar: quoteright
Encoding: 8217 8217 218
Width: 681
GlyphClass: 2
Flags: W
LayerCount: 2
Fore
SplineSet
194 960 m 1,0,-1
 293 1471 l 1,1,-1
 514 1471 l 1,2,-1
 340 960 l 1,3,-1
 194 960 l 1,0,-1
EndSplineSet
EndChar

StartChar: quotesinglbase
Encoding: 8218 8218 219
Width: 653
GlyphClass: 2
Flags: W
LayerCount: 2
Fore
SplineSet
169 -250 m 1,0,-1
 268 239 l 1,1,-1
 462 239 l 1,2,-1
 316 -250 l 1,3,-1
 169 -250 l 1,0,-1
EndSplineSet
EndChar

StartChar: quotedblleft
Encoding: 8220 8220 220
Width: 908
GlyphClass: 2
Flags: W
LayerCount: 2
Fore
SplineSet
749 955 m 1,0,-1
 529 955 l 1,1,-1
 435 1471 l 1,2,-1
 587 1471 l 1,3,-1
 749 955 l 1,0,-1
418 956 m 1,4,-1
 201 956 l 1,5,-1
 112 1471 l 1,6,-1
 269 1471 l 1,7,-1
 418 956 l 1,4,-1
EndSplineSet
EndChar

StartChar: quotedblright
Encoding: 8221 8221 221
Width: 880
GlyphClass: 2
Flags: W
LayerCount: 2
Fore
SplineSet
150 904 m 1,0,-1
 241 1472 l 1,1,-1
 458 1472 l 1,2,-1
 307 904 l 1,3,-1
 150 904 l 1,0,-1
472 904 m 1,4,-1
 567 1472 l 1,5,-1
 788 1472 l 1,6,-1
 624 904 l 1,7,-1
 472 904 l 1,4,-1
EndSplineSet
EndChar

StartChar: quotedblbase
Encoding: 8222 8222 222
Width: 880
GlyphClass: 2
Flags: W
LayerCount: 2
Fore
SplineSet
118 -250 m 1,0,-1
 217 239 l 1,1,-1
 413 239 l 1,2,-1
 266 -250 l 1,3,-1
 118 -250 l 1,0,-1
422 -250 m 1,4,-1
 523 239 l 1,5,-1
 720 239 l 1,6,-1
 572 -250 l 1,7,-1
 422 -250 l 1,4,-1
EndSplineSet
EndChar

StartChar: bullet
Encoding: 8226 8226 223
Width: 937
GlyphClass: 2
Flags: W
LayerCount: 2
Fore
SplineSet
457 379 m 0,0,1
 316 379 316 379 220 473 c 128,-1,2
 124 567 124 567 124 716 c 0,3,4
 124 866 124 866 222.5 962.5 c 128,-1,5
 321 1059 321 1059 463 1059 c 0,6,7
 604 1059 604 1059 700 965 c 128,-1,8
 796 871 796 871 796 721 c 0,9,10
 796 572 796 572 697.5 475.5 c 128,-1,11
 599 379 599 379 457 379 c 0,0,1
EndSplineSet
EndChar

StartChar: ellipsis
Encoding: 8230 8230 224
Width: 1505
GlyphClass: 2
Flags: W
LayerCount: 2
Fore
SplineSet
1232 -12 m 0,0,1
 1170 -12 1170 -12 1135 28 c 128,-1,2
 1100 68 1100 68 1100 122 c 128,-1,3
 1100 176 1100 176 1134.5 216 c 128,-1,4
 1169 256 1169 256 1232 256 c 128,-1,5
 1295 256 1295 256 1330 216 c 128,-1,6
 1365 176 1365 176 1365 122 c 0,7,8
 1365 67 1365 67 1330 27.5 c 128,-1,9
 1295 -12 1295 -12 1232 -12 c 0,0,1
742 -12 m 0,10,11
 680 -12 680 -12 645 28 c 128,-1,12
 610 68 610 68 610 122 c 128,-1,13
 610 176 610 176 644.5 216 c 128,-1,14
 679 256 679 256 742 256 c 128,-1,15
 805 256 805 256 839.5 216 c 128,-1,16
 874 176 874 176 874 122 c 0,17,18
 874 67 874 67 839.5 27.5 c 128,-1,19
 805 -12 805 -12 742 -12 c 0,10,11
251 -12 m 0,20,21
 189 -12 189 -12 153.5 28 c 128,-1,22
 118 68 118 68 118 122 c 128,-1,23
 118 176 118 176 153 216 c 128,-1,24
 188 256 188 256 251 256 c 128,-1,25
 314 256 314 256 348 216 c 128,-1,26
 382 176 382 176 382 122 c 0,27,28
 382 67 382 67 348 27.5 c 128,-1,29
 314 -12 314 -12 251 -12 c 0,20,21
EndSplineSet
EndChar

StartChar: guilsinglleft
Encoding: 8249 8249 226
Width: 766
GlyphClass: 2
Flags: W
LayerCount: 2
Fore
SplineSet
614 996 m 1,0,-1
 341 574 l 1,1,-1
 608 160 l 1,2,-1
 427 160 l 1,3,-1
 150 574 l 1,4,-1
 433 996 l 1,5,-1
 614 996 l 1,0,-1
EndSplineSet
EndChar

StartChar: guilsinglright
Encoding: 8250 8250 227
Width: 766
GlyphClass: 2
Flags: W
LayerCount: 2
Fore
SplineSet
144 160 m 1,0,-1
 416 579 l 1,1,-1
 150 996 l 1,2,-1
 331 996 l 1,3,-1
 611 578 l 1,4,-1
 325 160 l 1,5,-1
 144 160 l 1,0,-1
EndSplineSet
EndChar

StartChar: Euro
Encoding: 8364 8364 229
Width: 1520
GlyphClass: 2
Flags: W
LayerCount: 2
Fore
SplineSet
916 527 m 1,0,-1
 0 527 l 1,1,-1
 12 660 l 1,2,-1
 224 660 l 1,3,-1
 224 810 l 1,4,-1
 12 810 l 1,5,-1
 25 942 l 1,6,-1
 942 942 l 1,7,-1
 928 810 l 1,8,-1
 357 810 l 1,9,-1
 357 660 l 1,10,-1
 928 660 l 1,11,-1
 916 527 l 1,0,-1
863 1282 m 0,12,13
 651 1282 651 1282 545.5 1149.5 c 128,-1,14
 440 1017 440 1017 440 731 c 128,-1,15
 440 445 440 445 545.5 312.5 c 128,-1,16
 651 180 651 180 863 180 c 0,17,18
 939 180 939 180 1002 205 c 128,-1,19
 1065 230 1065 230 1106.5 272 c 128,-1,20
 1148 314 1148 314 1174.5 360.5 c 128,-1,21
 1201 407 1201 407 1214 459 c 1,22,-1
 1238 459 l 1,23,-1
 1407 384 l 1,24,25
 1393 323 1393 323 1364 266.5 c 128,-1,26
 1335 210 1335 210 1287.5 158 c 128,-1,27
 1240 106 1240 106 1179 67 c 128,-1,28
 1118 28 1118 28 1035 5 c 128,-1,29
 952 -18 952 -18 857 -18 c 0,30,31
 539 -18 539 -18 362.5 176 c 128,-1,32
 186 370 186 370 186 731 c 128,-1,33
 186 1092 186 1092 362.5 1286 c 128,-1,34
 539 1480 539 1480 857 1480 c 0,35,36
 952 1480 952 1480 1035 1457 c 128,-1,37
 1118 1434 1118 1434 1179 1395 c 128,-1,38
 1240 1356 1240 1356 1287.5 1304 c 128,-1,39
 1335 1252 1335 1252 1364 1195.5 c 128,-1,40
 1393 1139 1393 1139 1407 1078 c 1,41,-1
 1238 1003 l 1,42,-1
 1214 1003 l 1,43,44
 1201 1055 1201 1055 1174.5 1101.5 c 128,-1,45
 1148 1148 1148 1148 1106.5 1190 c 128,-1,46
 1065 1232 1065 1232 1002 1257 c 128,-1,47
 939 1282 939 1282 863 1282 c 0,12,13
EndSplineSet
EndChar

StartChar: trademark
Encoding: 8482 8482 230
Width: 1618
GlyphClass: 2
Flags: W
LayerCount: 2
Fore
SplineSet
178 619 m 1,0,-1
 178 1340 l 1,1,-1
 -65 1340 l 1,2,-1
 -65 1476 l 1,3,-1
 568 1476 l 1,4,-1
 568 1340 l 1,5,-1
 321 1340 l 1,6,-1
 321 619 l 1,7,-1
 178 619 l 1,0,-1
651 619 m 1,8,-1
 651 1476 l 1,9,-1
 838 1476 l 1,10,-1
 1071 872 l 1,11,-1
 1316 1476 l 1,12,-1
 1491 1476 l 1,13,-1
 1491 619 l 1,14,-1
 1350 619 l 1,15,-1
 1350 1238 l 1,16,-1
 1114 663 l 1,17,-1
 1015 663 l 1,18,-1
 792 1234 l 1,19,-1
 792 619 l 1,20,-1
 651 619 l 1,8,-1
EndSplineSet
EndChar

StartChar: uniE000
Encoding: 57344 57344 231
Width: 1080
GlyphClass: 2
Flags: W
LayerCount: 2
Fore
SplineSet
0 1080 m 1,0,-1
 1080 1080 l 1,1,-1
 1080 0 l 1,2,-1
 0 0 l 1,3,-1
 0 1080 l 1,0,-1
EndSplineSet
EndChar

StartChar: glyph218
Encoding: 65537 -1 234
Width: 738
GlyphClass: 2
Flags: W
LayerCount: 2
Fore
SplineSet
296 1276 m 1,0,-1
 474 1687 l 1,1,-1
 743 1687 l 1,2,-1
 434 1276 l 1,3,-1
 296 1276 l 1,0,-1
EndSplineSet
EndChar

StartChar: glyph219
Encoding: 65538 -1 235
Width: 937
GlyphClass: 2
Flags: W
LayerCount: 2
Fore
SplineSet
153 1276 m 1,0,-1
 375 1591 l 1,1,-1
 577 1591 l 1,2,-1
 795 1276 l 1,3,-1
 633 1276 l 1,4,-1
 469 1438 l 1,5,-1
 313 1276 l 1,6,-1
 153 1276 l 1,0,-1
EndSplineSet
EndChar

StartChar: glyph220
Encoding: 65539 -1 236
Width: 937
GlyphClass: 2
Flags: W
LayerCount: 2
Fore
SplineSet
397 1276 m 1,0,-1
 88 1687 l 1,1,-1
 353 1687 l 1,2,-1
 538 1276 l 1,3,-1
 397 1276 l 1,0,-1
EndSplineSet
EndChar
